<?xml version="1.0" encoding="UTF-8" standalone="no"?>
<svg
   id="light-mode"
   viewBox="0 0 260 64"
   version="1.1"
   sodipodi:docname="ai-compliance-guide-simple-dark.svg"
   xml:space="preserve"
   inkscape:version="1.4.2 (ebf0e940, 2025-05-08)"
   width="260"
   height="64"
   xmlns:inkscape="http://www.inkscape.org/namespaces/inkscape"
   xmlns:sodipodi="http://sodipodi.sourceforge.net/DTD/sodipodi-0.dtd"
   xmlns="http://www.w3.org/2000/svg"
   xmlns:svg="http://www.w3.org/2000/svg"><defs
     id="defs14"><rect
       x="-29.483833"
       y="-24.440546"
       width="289.48383"
       height="105.90903"
       id="rect34" /></defs><sodipodi:namedview
     id="namedview14"
     pagecolor="#ffffff"
     bordercolor="#000000"
     borderopacity="0.25"
     inkscape:showpageshadow="2"
     inkscape:pageopacity="0.0"
     inkscape:pagecheckerboard="0"
     inkscape:deskcolor="#d1d1d1"
     showgrid="false"
     showguides="true"
     inkscape:zoom="2.8979973"
     inkscape:cx="128.70958"
     inkscape:cy="52.622548"
     inkscape:window-width="1296"
     inkscape:window-height="1386"
     inkscape:window-x="943"
     inkscape:window-y="25"
     inkscape:window-maximized="0"
     inkscape:current-layer="light-mode"><sodipodi:guide
       position="251.20797,192.1395"
       orientation="0,-1"
       id="guide20"
       inkscape:locked="false" /></sodipodi:namedview><!-- Icon: gear + document --><g
     transform="matrix(1.1195156,0,0,1.1178604,13.791401,11.8817)"
     stroke="#18a5a7"
     fill="none"
     stroke-width="2"
     id="g11"
     style="stroke:#18a5a7"><!-- Document --><rect
       x="0"
       y="0"
       width="24"
       height="36"
       rx="3"
       ry="3"
       fill="#b7c6cf"
       id="rect1"
       style="stroke:#18a5a7" /><line
       x1="3.5845387"
       y1="8"
       x2="20.415461"
       y2="8"
       id="line1"
       style="stroke:#18a5a7;stroke-width:2.36861" /><line
       x1="3.5845387"
       y1="14"
       x2="20.415461"
       y2="14"
       id="line2"
       style="stroke:#18a5a7;stroke-width:2.36861" /><line
       x1="3.5845387"
       y1="20"
       x2="14.805154"
       y2="20"
       id="line3"
       style="stroke:#18a5a7;stroke-width:2.36861" /><!-- Gear center circle --><!-- Gear teeth --></g><!-- Title split in two lines --><!-- Tagline --><text
     x="90.899773"
     y="37.669991"
     font-family="'Work Sans', Arial, sans-serif"
     font-size="10px"
     fill="#b7c6cf"
     id="text14"
     style="font-size:10.6667px;word-spacing:-0.5px;fill:#b7c6cf"><tspan
       sodipodi:role="line"
       id="tspan21"
       x="90.899773"
       y="37.669991"
       style="font-style:normal;font-variant:normal;font-weight:300;font-stretch:normal;font-size:10.6667px;font-family:'Work Sans', Arial, sans-serif;-inkscape-font-specification:'Work Sans, Arial, sans-serif Light';word-spacing:-0.5px;fill:#b7c6cf">From engineering practices to</tspan><tspan
       sodipodi:role="line"
       x="90.899773"
       y="51.003365"
       id="tspan22"
       style="font-style:normal;font-variant:normal;font-weight:300;font-stretch:normal;font-size:10.6667px;font-family:'Work Sans', Arial, sans-serif;-inkscape-font-specification:'Work Sans, Arial, sans-serif Light';word-spacing:-0.5px;fill:#b7c6cf">a foundation for compliance</tspan></text><g
     id="g14"
     transform="matrix(0.10425851,0,0,0.10425851,27.754116,37.946773)"><circle
       style="fill:#b7c6cf;stroke:none;stroke-width:36.2515"
       id="path34"
       cx="322.15567"
       cy="-57.008156"
       r="112.39072" /><path
       d="m 448.09776,-55.018868 c 0.0488,-1.519549 1.20071,-3.320154 2.56084,-4.001141 l 27.61543,-13.828909 c 1.35921,-0.680987 2.27518,-2.465927 2.03467,-3.967967 l -6.36663,-29.343245 c -0.4073,-1.46518 -1.98306,-2.74329 -3.49984,-2.84189 L 439.0376,-111.033 c -1.5177,-0.0986 -3.322,-1.28826 -4.00943,-2.64378 l -4.27022,-7.85208 c -0.76484,-1.31405 -0.75655,-3.4593 0.0194,-4.7669 l 15.85805,-26.73817 c 0.7759,-1.3076 0.59068,-3.3137 -0.41099,-4.45728 l -21.36768,-21.78788 c -1.12423,-1.02378 -3.13217,-1.25784 -4.46097,-0.51973 l -27.32515,15.16324 c -1.32972,0.73812 -3.48142,0.69665 -4.78257,-0.0903 l -7.38396,-4.19374 c -1.34262,-0.71324 -2.4862,-2.54057 -2.54057,-4.06012 l -1.12423,-31.32537 c -0.0544,-1.51955 -1.29009,-3.12204 -2.74514,-3.56159 l -29.5948,-7.08078 c -1.49651,-0.27092 -3.3091,0.60265 -4.02879,1.94251 l -14.69604,27.35557 c -0.71968,1.33986 -1.93698,2.42354 -2.70551,2.40879 h -0.70126 c -4.26469,0 -9.87569,0.42297 -9.87569,0.42297 -1.51586,0.11427 -3.46667,-0.81368 -4.3338,-2.06323 l -17.96459,-25.86459 c -0.86713,-1.24863 -2.77555,-1.93791 -4.24073,-1.53245 l -28.26785,9.53566 c -1.41081,0.56764 -2.46776,2.27241 -2.34889,3.78827 l 2.40971,30.74299 c 0.11888,1.51587 -0.82934,3.43074 -2.10654,4.25548 l -8.98736,6.22287 c -1.22099,0.90583 -3.369,1.17214 -4.77428,0.59068 l -29.10365,-12.0495 c -1.40528,-0.58147 -3.3865,-0.1327 -4.40383,0.99706 l -18.13875,22.49283 c -0.88925,1.23296 -0.86529,3.23261 0.0544,4.44346 l 18.55895,24.44363 c 0.91965,1.21085 1.14911,3.33029 0.51051,4.7107 l -5.04704,12.08267 c -0.53355,1.423711 -2.19501,2.809643 -3.69152,3.079642 l -30.87661,5.575984 c -1.49651,0.269999 -2.91561,1.719514 -3.1552,3.221555 0,0 -3.02067,18.98745 -3.02067,30.321867 v 0.06082 c 9.2e-4,0.06727 1.17122,0.548291 2.59862,1.069859 l 28.8143,10.52442 c 1.42832,0.521567 2.77186,2.180262 2.98657,3.685067 l 2.70091,14.727369 c 0.33727,1.482689 -0.29764,3.543157 -1.40989,4.579842 l -22.8218,21.2543338 c -1.11225,1.03668437 -1.50941,3.016982 -0.88187,4.4019923 l 12.44666,24.1321699 c 0.76668,1.313134 2.60784,2.114836 4.09145,1.781254 l 30.05831,-6.753653 c 1.48361,-0.333582 3.52012,0.32621 4.5264,1.466102 l 11.08008,11.52148 c 1.09935,1.050507 1.69187,3.114661 1.3159,4.588135 L 231.8196,69.21002 c -0.37597,1.473474 0.36768,3.345035 1.65224,4.158717 l 23.46501,13.223485 c 1.36105,0.678222 3.3478,0.347405 4.41581,-0.734433 l 21.76577,-22.06433 c 1.06801,-1.082759 3.14323,-1.644873 4.61117,-1.250472 l 15.47655,3.439949 c 1.49651,0.267234 3.11466,1.666067 3.59476,3.109132 l 9.71166,29.164462 c 0.4801,1.442143 2.11668,2.6576 3.63715,2.70091 0,0 0.8146,0.023 2.6152,0.023 9.33569,0 24.63255,-1.999653 24.63255,-1.999653 1.50757,-0.197201 2.99763,-1.575761 3.31002,-3.063979 l 6.42836,-30.551315 c 0.31331,-1.488218 1.749,-3.099917 3.19114,-3.58186 l 13.61605,-5.162227 c 1.39883,-0.597131 3.5109,-0.305016 4.69503,0.648734 l 23.8852,19.241784 c 1.18413,0.95375 3.18193,1.035763 4.43978,0.181535 l 22.42187,-17.003467 c 1.16108,-0.982317 1.66791,-2.94787 1.12699,-4.368819 L 419.33046,25.95586 c -0.54092,-1.420949 -0.21194,-3.559744 0.73075,-4.752161 l 7.40239,-10.090395 c 0.85515,-1.2569223 2.79121,-2.1535391 4.30339,-1.9904341 L 462.3266,12.4034 c 1.51218,0.162184 3.24091,-0.847777 3.84264,-2.243846 l 10.01023,-27.373997 c 0.44416,-1.454123 -0.19259,-3.382816 -1.41634,-4.284962 l -25.36145,-18.716531 c -1.22375,-0.903067 -2.10654,-2.879679 -1.96187,-4.393699 z M 322.35947,35.316429 c -51.11085,0 -92.54597,-41.4332807 -92.54597,-92.545969 0,-51.11177 41.43328,-92.54597 92.54597,-92.54597 51.11268,0 92.54596,41.43328 92.54596,92.54597 0,51.1126883 -41.43328,92.545969 -92.54596,92.545969 z"
       fill="#1e1b1b"
       id="path1"
       style="fill:#18a5a7;stroke-width:0.921497" /><ellipse
       cx="572"
       cy="322"
       rx="0"
       ry="2"
       id="ellipse1" /></g><text
     xml:space="preserve"
     style="font-weight:300;font-size:14.6667px;font-family:'Helvetica Neue';-inkscape-font-specification:'Helvetica Neue Light';text-align:start;word-spacing:-0.5px;writing-mode:lr-tb;direction:ltr;text-anchor:start;fill:#18a5a7;stroke:none;stroke-width:3.77953"
     x="90.289116"
     y="21.301992"
     id="text32"><tspan
       sodipodi:role="line"
       x="90.289116"
       y="21.301992"
       style="font-style:normal;font-variant:normal;font-weight:600;font-stretch:normal;font-size:14.6667px;font-family:'Work Sans', Arial, sans-serif;-inkscape-font-specification:'Work Sans, Arial, sans-serif Semi-Bold';fill:#18a5a7;stroke:none"
       id="tspan33">Practical AI Act Guide</tspan></text><text
     xml:space="preserve"
     id="text34"
     style="font-style:normal;font-variant:normal;font-weight:600;font-stretch:normal;font-size:16px;font-family:'Work Sans', Arial, sans-serif;-inkscape-font-specification:'Work Sans, Arial, sans-serif Semi-Bold';text-align:start;word-spacing:0px;writing-mode:lr-tb;direction:ltr;white-space:pre;shape-inside:url(#rect34);display:inline;fill:#084059;stroke:none;stroke-width:3.77953" /></svg>
