<svg width="1014" height="148" viewBox="0 0 1014 148" fill="none" xmlns="http://www.w3.org/2000/svg">
<path d="M15.9905 54.322H79.0071L110.507 108.636L126.033 81.8767L94.5249 27.5547H31.5083" fill="#0044BB"/>
<path d="M0 81.8767L31.5083 136.191H94.5249L110.507 108.644H47.4988L15.9905 54.322" fill="#06B8FF"/>
<path d="M47.4988 0H110.515L79.007 54.322H15.9905L47.4988 0Z" fill="#146EF5"/>
<path d="M187.742 15.84H206.048C210.365 15.84 213.776 16.8713 216.281 18.9261C218.786 20.9888 220.038 23.8387 220.038 27.4917C220.038 29.4756 219.581 31.2312 218.668 32.7664C217.754 34.3016 216.407 35.514 214.619 36.4036C216.525 37.2933 217.99 38.5608 219.022 40.1904C220.054 41.8201 220.566 43.804 220.566 46.1344C220.566 50.0944 219.274 53.1254 216.69 55.2195C214.107 57.3137 210.641 58.3686 206.285 58.3686H187.75V15.84H187.742ZM193.981 21.6029V33.6639H206.222C208.79 33.6639 210.672 33.0813 211.878 31.9162C213.083 30.751 213.681 29.2788 213.681 27.4917C213.681 25.7046 213.043 24.1772 211.759 23.1538C210.475 22.1225 208.569 21.6107 206.048 21.6107H193.981V21.6029ZM193.981 39.5449V52.5349H206.277C208.805 52.5349 210.759 51.9445 212.137 50.7557C213.516 49.5748 214.209 47.9923 214.209 46.0084C214.209 44.0245 213.547 42.4027 212.224 41.2611C210.901 40.1196 208.766 39.5449 205.812 39.5449H193.981Z" fill="black"/>
<path d="M237.116 59.0063C235.288 59.0063 233.689 58.7701 232.303 58.3056C230.924 57.8412 229.766 57.1877 228.837 56.3532C227.907 55.5187 227.198 54.5267 226.71 53.3773C226.222 52.2358 225.985 50.9997 225.985 49.6771C225.985 46.4178 227.238 43.8591 229.743 42.0169C232.248 40.1747 235.714 39.2536 240.148 39.2536H249.475V38.7261C249.475 36.6319 248.813 34.9236 247.49 33.6009C246.166 32.2783 244.111 31.617 241.314 31.617C239.219 31.617 237.407 32.0736 235.895 32.9869C234.382 33.9001 233.177 35.1361 232.279 36.687L226.686 33.4277C228.238 31.3651 230.231 29.6567 232.657 28.3026C235.083 26.9406 237.99 26.2635 241.369 26.2635C243.622 26.2635 245.631 26.5627 247.403 27.1689C249.168 27.7751 250.656 28.6253 251.862 29.7354C253.067 30.8455 253.98 32.176 254.603 33.7269C255.225 35.2778 255.532 37.0098 255.532 38.915V58.3765H249.467V52.842C248.222 54.7078 246.513 56.2036 244.339 57.3294C242.165 58.4552 239.755 59.0221 237.108 59.0221L237.116 59.0063ZM238.455 53.5269C239.581 53.5269 240.692 53.3694 241.779 53.0624C242.866 52.7554 243.898 52.3145 244.867 51.7476C245.836 51.1887 246.726 50.4959 247.521 49.6771C248.317 48.8583 248.971 47.9293 249.475 46.8823V44.2606H240.558C237.643 44.2606 235.556 44.6858 234.288 45.5439C233.027 46.3942 232.397 47.6066 232.397 49.1575C232.397 50.5195 232.886 51.5823 233.855 52.3617C234.823 53.1411 236.359 53.5269 238.463 53.5269H238.455Z" fill="black"/>
<path d="M263.866 70.0203C262.385 70.0203 260.944 69.7999 259.526 69.3511C258.108 68.9024 256.895 68.2883 255.887 67.5168L259.62 62.2184C260.164 62.7616 260.778 63.2025 261.456 63.5332C262.133 63.8638 262.921 64.0292 263.819 64.0292C264.638 64.0292 265.363 63.9347 266.001 63.7379C266.639 63.541 267.238 63.2261 267.781 62.7774C268.325 62.3286 268.837 61.7382 269.325 60.9981C269.813 60.2581 270.31 59.3291 270.814 58.2033L271.397 56.8649L258.455 26.917H265.213L274.658 49.4645L283.693 26.917H290.396L276.351 59.9511C275.572 61.8169 274.768 63.3915 273.933 64.6668C273.098 65.9501 272.184 66.9893 271.192 67.7845C270.199 68.5796 269.112 69.1543 267.931 69.5007C266.741 69.855 265.394 70.0282 263.882 70.0282L263.866 70.0203Z" fill="black"/>
<path d="M308.576 59.0063C306.048 59.0063 303.771 58.5891 301.723 57.7546C299.683 56.92 297.927 55.7706 296.446 54.3142C294.965 52.8577 293.831 51.1414 293.035 49.1575C292.239 47.1736 291.838 45.04 291.838 42.7491C291.838 40.4581 292.255 38.2537 293.09 36.254C293.925 34.2544 295.083 32.5145 296.556 31.0423C298.029 29.5701 299.762 28.4049 301.747 27.5468C303.732 26.6965 305.883 26.2635 308.214 26.2635C310.546 26.2635 312.696 26.665 314.658 27.4602C316.619 28.2553 318.32 29.3733 319.762 30.814C321.196 32.2547 322.33 33.9473 323.141 35.9076C323.96 37.868 324.362 40.0172 324.362 42.3476V44.9692H297.895C298.36 47.5357 299.526 49.5826 301.393 51.1178C303.259 52.653 305.646 53.4167 308.561 53.4167C310.774 53.4167 312.633 52.9522 314.13 52.0153C315.626 51.0863 316.84 49.8582 317.769 48.3466L322.96 51.4327C321.448 53.7237 319.518 55.5581 317.186 56.9358C314.855 58.3135 311.979 59.0063 308.561 59.0063H308.576ZM308.23 31.7981C305.701 31.7981 303.543 32.5224 301.763 33.9788C299.975 35.4353 298.77 37.309 298.147 39.6H318.021C317.556 37.1122 316.454 35.1912 314.728 33.8292C312.996 32.4673 310.829 31.7902 308.23 31.7902V31.7981Z" fill="black"/>
<path d="M330.435 26.9091H336.611V32.3885C337.273 30.4046 338.36 28.9245 339.872 27.9326C341.385 26.9406 343.157 26.4446 345.173 26.4446C346.26 26.4446 347.261 26.5548 348.175 26.7674C349.088 26.98 349.852 27.2791 350.475 27.6728L348.025 33.7348C347.095 33.1128 345.772 32.8058 344.063 32.8058C341.81 32.8058 340.022 33.412 338.698 34.6087C337.375 35.8132 336.713 37.8286 336.713 40.6707V58.3844H330.42V26.9248L330.435 26.9091Z" fill="black"/>
<path d="M354.161 17.4697C354.161 16.1864 354.579 15.1236 355.414 14.2655C356.249 13.4152 357.312 12.9822 358.588 12.9822C359.864 12.9822 360.991 13.4073 361.826 14.2655C362.66 15.1236 363.078 16.1864 363.078 17.4697C363.078 18.7529 362.66 19.8236 361.826 20.6739C360.991 21.532 359.911 21.9571 358.588 21.9571C357.265 21.9571 356.201 21.532 355.382 20.6739C354.563 19.8236 354.161 18.7529 354.161 17.4697ZM355.445 26.9091H361.802V58.3686H355.445V26.9091Z" fill="black"/>
<path d="M380.392 59.0063C377.052 59.0063 374.24 58.4238 371.971 57.2586C369.695 56.0934 367.883 54.3693 366.52 52.0704L372.176 48.8662C373.145 50.3463 374.311 51.4879 375.673 52.3066C377.036 53.1254 378.706 53.5269 380.683 53.5269C382.66 53.5269 384.299 53.0939 385.346 52.2122C386.394 51.3304 386.922 50.2991 386.922 49.0945C386.922 48.3939 386.701 47.8192 386.252 47.3783C385.803 46.9295 385.213 46.5595 384.472 46.2682C383.732 45.9769 382.889 45.725 381.936 45.5124C380.983 45.2999 379.982 45.0716 378.935 44.8433C377.611 44.5677 376.304 44.2292 374.996 43.8277C373.696 43.4183 372.515 42.8751 371.467 42.198C370.419 41.5209 369.577 40.6471 368.931 39.5764C368.293 38.5057 367.97 37.1752 367.97 35.5849C367.97 34.3804 368.253 33.2073 368.812 32.0579C369.372 30.9163 370.183 29.9008 371.231 29.0269C372.278 28.153 373.555 27.4681 375.051 26.9563C376.548 26.4525 378.226 26.2006 380.092 26.2006C383.046 26.2006 385.551 26.7202 387.615 27.7436C389.671 28.775 391.38 30.2235 392.743 32.0815L387.324 35.1676C386.544 34.0025 385.575 33.0892 384.409 32.4279C383.243 31.7666 381.802 31.4359 380.092 31.4359C378.147 31.4359 376.713 31.8217 375.776 32.6011C374.846 33.3805 374.374 34.3331 374.374 35.4589C374.374 36.7028 375.043 37.5767 376.382 38.0806C377.721 38.5844 379.596 39.0883 382.007 39.5921C383.33 39.8677 384.645 40.2062 385.969 40.6077C387.292 41.0171 388.482 41.5682 389.553 42.2689C390.624 42.9695 391.498 43.8592 392.176 44.9456C392.853 46.032 393.192 47.394 393.192 49.0237C393.192 50.1889 392.932 51.3619 392.404 52.5507C391.877 53.7395 391.089 54.8023 390.041 55.7549C388.994 56.7075 387.662 57.4869 386.048 58.0852C384.433 58.6914 382.542 58.9906 380.368 58.9906L380.392 59.0063Z" fill="black"/>
<path d="M414.255 59.0063C411.924 59.0063 409.75 58.5812 407.725 57.7231C405.701 56.8728 403.952 55.7076 402.479 54.2276C401.006 52.7475 399.848 51.0233 399.013 49.0394C398.178 47.0555 397.761 44.922 397.761 42.631C397.761 40.34 398.186 38.1435 399.045 36.1674C399.895 34.1835 401.061 32.4594 402.542 30.9793C404.023 29.4992 405.756 28.3498 407.757 27.5153C409.758 26.6808 411.908 26.2635 414.2 26.2635C415.949 26.2635 417.587 26.4997 419.123 26.9642C420.659 27.4287 422.069 28.09 423.353 28.9481C424.637 29.8063 425.772 30.8218 426.764 32.0106C427.757 33.1994 428.544 34.4906 429.127 35.884L423.471 38.3325C422.652 36.3879 421.439 34.8763 419.832 33.7899C418.217 32.7034 416.343 32.1602 414.208 32.1602C412.727 32.1602 411.372 32.4358 410.128 32.979C408.883 33.5222 407.804 34.2701 406.89 35.2227C405.977 36.1753 405.26 37.2933 404.732 38.5765C404.204 39.8598 403.944 41.2218 403.944 42.6546C403.944 44.0874 404.204 45.4494 404.732 46.7327C405.26 48.016 405.984 49.1339 406.914 50.0865C407.843 51.0391 408.946 51.787 410.207 52.3302C411.467 52.8734 412.837 53.149 414.318 53.149C416.571 53.149 418.485 52.5349 420.061 51.3146C421.636 50.0944 422.81 48.567 423.59 46.7406L429.301 49.126C428.056 52.0389 426.15 54.4165 423.59 56.2666C421.022 58.1088 417.918 59.0378 414.263 59.0378L414.255 59.0063Z" fill="black"/>
<path d="M434.893 12.4547H441.132V31.0974C442.258 29.6252 443.668 28.4443 445.362 27.5704C447.055 26.6965 448.97 26.2557 451.104 26.2557C453.089 26.2557 454.885 26.5784 456.492 27.2161C458.107 27.8538 459.462 28.7671 460.573 29.9559C461.683 31.1446 462.534 32.6011 463.14 34.3252C463.739 36.0572 464.046 37.9861 464.046 40.1196V58.3529H457.634V40.5841C457.634 37.9073 456.965 35.7659 455.626 34.1757C454.287 32.5854 452.278 31.7902 449.592 31.7902C448.426 31.7902 447.323 32.0028 446.299 32.4279C445.267 32.853 444.377 33.4671 443.621 34.2623C442.865 35.0574 442.274 36.0336 441.841 37.1752C441.415 38.3246 441.203 39.5921 441.203 40.9935V58.3529H434.909V12.4547H434.893Z" fill="black"/>
<path d="M486.709 59.0063C484.18 59.0063 481.904 58.5891 479.863 57.7546C477.823 56.92 476.067 55.7706 474.586 54.3142C473.105 52.8577 471.971 51.1414 471.175 49.1575C470.379 47.1736 469.978 45.04 469.978 42.7491C469.978 40.4581 470.395 38.2537 471.23 36.254C472.065 34.2544 473.223 32.5145 474.696 31.0423C476.177 29.5701 477.902 28.4049 479.887 27.5468C481.872 26.6965 484.023 26.2635 486.354 26.2635C488.686 26.2635 490.828 26.665 492.798 27.4602C494.759 28.2553 496.46 29.3733 497.894 30.814C499.328 32.2547 500.462 33.9473 501.273 35.9076C502.093 37.868 502.494 40.0172 502.494 42.3476V44.9692H476.027C476.492 47.5357 477.658 49.5826 479.525 51.1178C481.392 52.653 483.778 53.4167 486.693 53.4167C488.906 53.4167 490.765 52.9522 492.262 52.0153C493.759 51.0863 494.972 49.8582 495.901 48.3466L501.092 51.4327C499.58 53.7237 497.65 55.5581 495.318 56.9358C492.987 58.3135 490.112 59.0063 486.693 59.0063H486.709ZM486.362 31.7981C483.834 31.7981 481.675 32.5224 479.895 33.9788C478.107 35.4353 476.902 37.309 476.279 39.6H496.153C495.689 37.1122 494.586 35.1912 492.861 33.8292C491.128 32.4673 488.961 31.7902 486.362 31.7902V31.7981Z" fill="black"/>
<path d="M508.568 26.9091H514.743V32.3885C515.405 30.4046 516.492 28.9245 518.004 27.9326C519.517 26.9406 521.289 26.4446 523.306 26.4446C524.393 26.4446 525.393 26.5548 526.307 26.7674C527.22 26.98 527.985 27.2791 528.607 27.6728L526.157 33.7348C525.228 33.1128 523.904 32.8058 522.195 32.8058C519.942 32.8058 518.154 33.412 516.831 34.6087C515.507 35.8132 514.846 37.8286 514.846 40.6707V58.3844H508.552V26.9248L508.568 26.9091Z" fill="black"/>
<path d="M202.023 107.258L194.036 116.698V129.223H187.742V86.6948H194.036V108.715L212.397 86.6948H220.211L206.687 102.716L220.968 129.223H213.681L202.023 107.258Z" fill="black"/>
<path d="M227.088 86.6948H233.5V129.223H227.088V86.6948Z" fill="black"/>
<path d="M241.369 111.801H262.937V117.218H241.369V111.801Z" fill="black"/>
<path d="M270.751 86.6948H277.163V129.223H270.751V86.6948Z" fill="black"/>
<path d="M285.024 97.7639H291.2V102.133C292.287 100.622 293.681 99.4093 295.367 98.4961C297.06 97.5829 299.006 97.1263 301.227 97.1263C303.212 97.1263 305.008 97.449 306.615 98.0867C308.23 98.7244 309.585 99.6377 310.695 100.826C311.806 102.015 312.657 103.472 313.263 105.196C313.862 106.928 314.169 108.857 314.169 110.99V129.223H307.812V111.455C307.812 108.778 307.135 106.637 305.772 105.046C304.41 103.456 302.409 102.661 299.77 102.661C298.565 102.661 297.446 102.873 296.422 103.298C295.39 103.724 294.5 104.338 293.744 105.133C292.988 105.928 292.397 106.904 291.964 108.046C291.538 109.195 291.326 110.463 291.326 111.864V129.223H285.032V97.7639H285.024Z" fill="black"/>
<path d="M321.282 97.7639H327.458V102.133C328.545 100.622 329.939 99.4093 331.625 98.4961C333.318 97.5829 335.264 97.1263 337.485 97.1263C339.47 97.1263 341.266 97.449 342.873 98.0867C344.488 98.7244 345.843 99.6377 346.954 100.826C348.064 102.015 348.915 103.472 349.522 105.196C350.12 106.928 350.427 108.857 350.427 110.99V129.223H344.071V111.455C344.071 108.778 343.393 106.637 342.03 105.046C340.668 103.456 338.667 102.661 336.028 102.661C334.823 102.661 333.704 102.873 332.68 103.298C331.648 103.724 330.758 104.338 330.002 105.133C329.246 105.928 328.655 106.904 328.222 108.046C327.797 109.195 327.584 110.463 327.584 111.864V129.223H321.29V97.7639H321.282Z" fill="black"/>
<path d="M372.751 129.861C370.459 129.861 368.324 129.436 366.339 128.578C364.354 127.728 362.629 126.562 361.148 125.082C359.667 123.602 358.509 121.878 357.651 119.894C356.792 117.91 356.367 115.777 356.367 113.486C356.367 111.195 356.792 109.109 357.651 107.109C358.501 105.109 359.667 103.369 361.148 101.897C362.621 100.425 364.354 99.2597 366.339 98.4016C368.324 97.5513 370.459 97.1183 372.751 97.1183C375.043 97.1183 377.131 97.5435 379.131 98.4016C381.132 99.2597 382.873 100.425 384.346 101.897C385.819 103.377 386.985 105.109 387.843 107.109C388.694 109.109 389.127 111.234 389.127 113.486C389.127 115.737 388.702 117.91 387.843 119.894C386.985 121.878 385.819 123.602 384.346 125.082C382.865 126.562 381.132 127.728 379.131 128.578C377.131 129.428 375.004 129.861 372.751 129.861ZM372.751 123.98C374.185 123.98 375.524 123.705 376.745 123.161C377.966 122.618 379.037 121.87 379.951 120.918C380.864 119.965 381.581 118.855 382.109 117.595C382.637 116.336 382.897 114.966 382.897 113.486C382.897 112.006 382.637 110.691 382.109 109.408C381.581 108.124 380.864 107.014 379.951 106.054C379.037 105.101 377.958 104.353 376.713 103.81C375.469 103.267 374.145 102.991 372.751 102.991C371.357 102.991 369.986 103.267 368.757 103.81C367.529 104.353 366.465 105.101 365.551 106.054C364.638 107.007 363.929 108.124 363.425 109.408C362.92 110.691 362.668 112.053 362.668 113.486C362.668 114.919 362.92 116.336 363.425 117.595C363.929 118.855 364.638 119.965 365.551 120.918C366.465 121.87 367.536 122.618 368.757 123.161C369.978 123.705 371.309 123.98 372.751 123.98Z" fill="black"/>
<path d="M391.057 97.7639H397.706L406.741 121.414L416.122 97.7639H422.652L409.592 129.223H403.416L391.057 97.7639Z" fill="black"/>
<path d="M435.649 129.861C433.822 129.861 432.223 129.625 430.844 129.16C429.466 128.696 428.308 128.043 427.379 127.208C426.449 126.374 425.74 125.382 425.252 124.232C424.763 123.091 424.527 121.855 424.527 120.532C424.527 117.273 425.779 114.714 428.284 112.872C430.789 111.03 434.255 110.101 438.69 110.101H448.016V109.573C448.016 107.479 447.355 105.771 446.031 104.448C444.708 103.125 442.652 102.464 439.856 102.464C437.761 102.464 435.949 102.921 434.436 103.834C432.924 104.747 431.719 105.975 430.821 107.534L425.228 104.275C426.78 102.212 428.773 100.504 431.199 99.1495C433.625 97.7954 436.532 97.1105 439.911 97.1105C442.164 97.1105 444.172 97.4096 445.945 98.0158C447.709 98.622 449.198 99.4723 450.403 100.582C451.608 101.692 452.522 103.023 453.144 104.574C453.767 106.125 454.074 107.857 454.074 109.762V129.223H448.009V123.689C446.764 125.555 445.055 127.051 442.881 128.176C440.707 129.302 438.296 129.869 435.649 129.869V129.861ZM436.989 124.382C438.115 124.382 439.226 124.224 440.313 123.917C441.4 123.61 442.432 123.169 443.4 122.602C444.369 122.043 445.259 121.351 446.055 120.532C446.851 119.713 447.504 118.784 448.009 117.737V115.115H439.092C436.177 115.115 434.09 115.541 432.822 116.399C431.561 117.257 430.923 118.461 430.923 120.012C430.923 121.374 431.412 122.437 432.38 123.217C433.349 123.996 434.885 124.382 436.989 124.382Z" fill="black"/>
<path d="M457.918 97.7639H464.157V90.9461L470.332 86.9232V97.7561H479.131V103.409H470.332V118.91C470.332 120.658 470.71 121.918 471.467 122.697C472.223 123.476 473.223 123.862 474.468 123.862C475.712 123.862 476.744 123.453 477.674 122.642L480.643 127.885C479.745 128.507 478.745 128.979 477.642 129.31C476.531 129.641 475.318 129.806 474.003 129.806C470.852 129.806 468.426 128.972 466.717 127.303C465.007 125.634 464.149 122.854 464.149 118.973V103.417H457.91V97.7639H457.918Z" fill="black"/>
<path d="M483.684 88.3245C483.684 87.0412 484.101 85.9784 484.936 85.1203C485.771 84.2621 486.835 83.837 488.111 83.837C489.387 83.837 490.513 84.2621 491.348 85.1203C492.183 85.9705 492.601 87.0412 492.601 88.3245C492.601 89.6077 492.183 90.6784 491.348 91.5287C490.513 92.3868 489.434 92.812 488.111 92.812C486.787 92.812 485.724 92.3868 484.905 91.5287C484.086 90.6784 483.684 89.6077 483.684 88.3245ZM484.96 97.7639H491.317V129.223H484.96V97.7639Z" fill="black"/>
<path d="M513.759 129.861C511.466 129.861 509.332 129.436 507.347 128.578C505.362 127.728 503.636 126.562 502.156 125.082C500.675 123.602 499.509 121.878 498.658 119.894C497.8 117.91 497.374 115.777 497.374 113.486C497.374 111.195 497.8 109.109 498.658 107.109C499.509 105.109 500.675 103.369 502.156 101.897C503.629 100.425 505.362 99.2597 507.347 98.4016C509.332 97.5513 511.466 97.1183 513.759 97.1183C516.051 97.1183 518.138 97.5435 520.139 98.4016C522.14 99.2597 523.881 100.425 525.354 101.897C526.827 103.377 527.992 105.109 528.851 107.109C529.702 109.109 530.135 111.234 530.135 113.486C530.135 115.737 529.71 117.91 528.851 119.894C527.992 121.878 526.827 123.602 525.354 125.082C523.873 126.562 522.14 127.728 520.139 128.578C518.138 129.428 516.011 129.861 513.759 129.861ZM513.759 123.98C515.192 123.98 516.523 123.705 517.752 123.161C518.973 122.618 520.044 121.87 520.958 120.918C521.872 119.965 522.589 118.855 523.116 117.595C523.644 116.336 523.904 114.966 523.904 113.486C523.904 112.006 523.644 110.691 523.116 109.408C522.589 108.124 521.872 107.014 520.958 106.054C520.044 105.101 518.965 104.353 517.721 103.81C516.476 103.267 515.153 102.991 513.759 102.991C512.364 102.991 510.986 103.267 509.765 103.81C508.544 104.353 507.473 105.101 506.559 106.054C505.645 107.007 504.936 108.124 504.432 109.408C503.928 110.691 503.676 112.053 503.676 113.486C503.676 114.919 503.928 116.336 504.432 117.595C504.936 118.855 505.645 119.965 506.559 120.918C507.473 121.87 508.544 122.618 509.765 123.161C510.986 123.705 512.317 123.98 513.759 123.98Z" fill="black"/>
<path d="M536.2 97.7639H542.376V102.133C543.463 100.622 544.857 99.4093 546.543 98.4961C548.236 97.5829 550.182 97.1263 552.403 97.1263C554.388 97.1263 556.184 97.449 557.791 98.0867C559.406 98.7244 560.761 99.6377 561.872 100.826C562.982 102.015 563.833 103.472 564.44 105.196C565.038 106.928 565.345 108.857 565.345 110.99V129.223H558.989V111.455C558.989 108.778 558.311 106.637 556.949 105.046C555.586 103.456 553.585 102.661 550.946 102.661C549.741 102.661 548.622 102.873 547.598 103.298C546.567 103.724 545.676 104.338 544.92 105.133C544.164 105.928 543.573 106.904 543.14 108.046C542.715 109.195 542.502 110.463 542.502 111.864V129.223H536.208V97.7639H536.2Z" fill="black"/>
<path d="M583.825 129.861C580.485 129.861 577.673 129.279 575.404 128.113C573.136 126.948 571.316 125.224 569.954 122.925L575.609 119.721C576.578 121.201 577.744 122.343 579.107 123.161C580.469 123.98 582.139 124.382 584.117 124.382C586.094 124.382 587.732 123.949 588.78 123.075C589.827 122.201 590.355 121.162 590.355 119.957C590.355 119.257 590.135 118.682 589.686 118.241C589.237 117.792 588.646 117.422 587.905 117.131C587.165 116.84 586.322 116.588 585.369 116.375C584.416 116.163 583.415 115.942 582.368 115.706C581.044 115.43 579.737 115.092 578.429 114.69C577.13 114.281 575.956 113.738 574.9 113.061C573.845 112.384 573.002 111.51 572.364 110.439C571.726 109.368 571.403 108.046 571.403 106.448C571.403 105.243 571.686 104.07 572.246 102.921C572.805 101.779 573.616 100.763 574.664 99.8895C575.712 99.0157 576.988 98.3307 578.484 97.819C579.981 97.3152 581.659 97.0632 583.526 97.0632C586.48 97.0632 588.985 97.575 591.048 98.6063C593.104 99.6376 594.814 101.078 596.176 102.944L590.757 106.03C589.977 104.865 589.008 103.952 587.842 103.291C586.677 102.629 585.235 102.299 583.526 102.299C581.58 102.299 580.146 102.684 579.209 103.464C578.28 104.243 577.807 105.196 577.807 106.322C577.807 107.565 578.477 108.439 579.816 108.943C581.155 109.447 583.029 109.951 585.44 110.455C586.763 110.73 588.079 111.069 589.402 111.47C590.725 111.88 591.915 112.431 592.986 113.132C594.057 113.832 594.932 114.722 595.609 115.808C596.287 116.895 596.625 118.257 596.625 119.886C596.625 121.052 596.365 122.225 595.838 123.413C595.31 124.602 594.522 125.665 593.474 126.618C592.427 127.57 591.096 128.35 589.481 128.948C587.866 129.554 585.976 129.853 583.794 129.853L583.825 129.861Z" fill="black"/>
<path d="M619.437 129.861C617.263 129.861 615.199 129.405 613.262 128.491C611.324 127.578 609.748 126.303 608.543 124.673V129.216H602.368V83.1914H608.606V102.299C609.811 100.669 611.379 99.3936 613.301 98.4803C615.223 97.5671 617.255 97.1105 619.39 97.1105C621.525 97.1105 623.478 97.4962 625.361 98.2756C627.243 99.055 628.913 100.157 630.371 101.598C631.828 103.039 632.986 104.755 633.837 106.755C634.687 108.754 635.121 110.998 635.121 113.486C635.121 115.974 634.687 118.17 633.805 120.186C632.931 122.209 631.773 123.933 630.339 125.374C628.905 126.814 627.228 127.917 625.329 128.696C623.423 129.475 621.462 129.861 619.445 129.861H619.437ZM618.563 124.09C619.997 124.09 621.344 123.815 622.588 123.272C623.833 122.728 624.92 121.973 625.849 121.004C626.779 120.036 627.511 118.894 628.031 117.595C628.559 116.296 628.819 114.903 628.819 113.431C628.819 111.959 628.559 110.565 628.031 109.266C627.503 107.967 626.779 106.841 625.849 105.889C624.92 104.936 623.825 104.188 622.588 103.645C621.351 103.102 620.004 102.826 618.563 102.826C617.121 102.826 615.719 103.11 614.451 103.668C613.191 104.227 612.088 104.991 611.158 105.936C610.229 106.888 609.496 108.014 608.977 109.313C608.449 110.612 608.189 111.982 608.189 113.423C608.189 114.864 608.449 116.289 608.977 117.588C609.504 118.887 610.229 120.012 611.158 120.965C612.088 121.918 613.191 122.673 614.451 123.232C615.711 123.799 617.082 124.075 618.563 124.075V124.09Z" fill="black"/>
<path d="M656.743 129.861C654.215 129.861 651.938 129.444 649.898 128.609C647.858 127.775 646.101 126.625 644.62 125.169C643.14 123.713 642.005 121.996 641.21 120.012C640.414 118.028 640.012 115.895 640.012 113.604C640.012 111.313 640.43 109.109 641.265 107.109C642.1 105.109 643.258 103.369 644.731 101.897C646.212 100.425 647.937 99.2597 649.922 98.4016C651.907 97.5513 654.057 97.1183 656.389 97.1183C658.72 97.1183 660.863 97.5199 662.832 98.315C664.794 99.1102 666.495 100.228 667.929 101.669C669.362 103.11 670.497 104.802 671.308 106.762C672.127 108.723 672.529 110.872 672.529 113.202V115.824H646.062C646.527 118.391 647.692 120.437 649.559 121.973C651.426 123.508 653.813 124.271 656.727 124.271C658.941 124.271 660.8 123.807 662.297 122.87C663.793 121.941 665.006 120.713 665.936 119.201L671.127 122.288C669.614 124.579 667.684 126.413 665.353 127.791C663.021 129.168 660.146 129.861 656.727 129.861H656.743ZM656.397 102.653C653.868 102.653 651.71 103.377 649.93 104.842C648.141 106.298 646.936 108.172 646.314 110.463H666.188C665.723 107.975 664.62 106.054 662.895 104.692C661.162 103.33 658.996 102.653 656.397 102.653Z" fill="black"/>
<path d="M690.024 129.861C686.684 129.861 683.872 129.279 681.603 128.113C679.335 126.948 677.515 125.224 676.152 122.925L681.808 119.721C682.777 121.201 683.943 122.343 685.305 123.161C686.668 123.98 688.338 124.382 690.315 124.382C692.292 124.382 693.931 123.949 694.979 123.075C696.026 122.201 696.554 121.162 696.554 119.957C696.554 119.257 696.333 118.682 695.884 118.241C695.435 117.792 694.845 117.422 694.104 117.131C693.364 116.84 692.521 116.588 691.568 116.375C690.615 116.163 689.614 115.942 688.567 115.706C687.243 115.43 685.936 115.092 684.628 114.69C683.328 114.281 682.155 113.738 681.099 113.061C680.044 112.384 679.201 111.51 678.563 110.439C677.925 109.368 677.602 108.046 677.602 106.448C677.602 105.243 677.885 104.07 678.444 102.921C679.004 101.779 679.815 100.763 680.863 99.8895C681.91 99.0157 683.187 98.3307 684.683 97.819C686.18 97.3152 687.858 97.0632 689.724 97.0632C692.678 97.0632 695.183 97.575 697.247 98.6063C699.303 99.6376 701.012 101.078 702.375 102.944L696.956 106.03C696.176 104.865 695.207 103.952 694.041 103.291C692.875 102.629 691.434 102.299 689.724 102.299C687.779 102.299 686.345 102.684 685.408 103.464C684.478 104.243 684.006 105.196 684.006 106.322C684.006 107.565 684.675 108.439 686.014 108.943C687.353 109.447 689.228 109.951 691.639 110.455C692.962 110.73 694.277 111.069 695.601 111.47C696.924 111.88 698.114 112.431 699.185 113.132C700.256 113.832 701.13 114.722 701.808 115.808C702.485 116.895 702.824 118.257 702.824 119.886C702.824 121.052 702.564 122.225 702.036 123.413C701.509 124.602 700.721 125.665 699.673 126.618C698.626 127.57 697.294 128.35 695.68 128.948C694.065 129.554 692.174 129.853 689.992 129.853L690.024 129.861Z" fill="black"/>
<path d="M723.887 129.861C721.556 129.861 719.382 129.436 717.357 128.578C715.333 127.728 713.584 126.562 712.111 125.082C710.638 123.602 709.48 121.878 708.645 119.894C707.81 117.91 707.393 115.777 707.393 113.486C707.393 111.195 707.818 108.998 708.677 107.022C709.527 105.038 710.693 103.314 712.174 101.834C713.647 100.362 715.388 99.2046 717.389 98.3701C719.39 97.5356 721.54 97.1183 723.832 97.1183C725.581 97.1183 727.219 97.3545 728.755 97.819C730.291 98.2835 731.701 98.9448 732.985 99.803C734.269 100.661 735.404 101.677 736.396 102.858C737.389 104.046 738.176 105.338 738.759 106.731L733.104 109.179C732.284 107.243 731.071 105.723 729.464 104.637C727.85 103.55 725.975 103.007 723.84 103.007C722.359 103.007 721.004 103.283 719.76 103.826C718.515 104.369 717.436 105.117 716.522 106.07C715.609 107.022 714.892 108.14 714.364 109.423C713.836 110.707 713.576 112.069 713.576 113.502C713.576 114.934 713.836 116.296 714.364 117.58C714.892 118.863 715.616 119.981 716.546 120.933C717.475 121.886 718.578 122.634 719.839 123.177C721.099 123.72 722.469 123.996 723.95 123.996C726.203 123.996 728.117 123.382 729.693 122.162C731.268 120.941 732.442 119.414 733.222 117.588L738.933 119.981C737.688 122.894 735.782 125.271 733.222 127.114C730.654 128.956 727.55 129.885 723.895 129.885L723.887 129.861Z" fill="black"/>
<path d="M744.525 83.3095H750.764V101.952C751.89 100.48 753.3 99.2991 754.994 98.4252C756.687 97.5514 758.602 97.1105 760.736 97.1105C762.721 97.1105 764.517 97.4333 766.124 98.071C767.739 98.7087 769.094 99.6219 770.205 100.811C771.315 101.999 772.166 103.456 772.772 105.18C773.371 106.912 773.678 108.841 773.678 110.974V129.208H767.266V111.439C767.266 108.762 766.597 106.621 765.258 105.03C763.919 103.44 761.91 102.645 759.224 102.645C758.058 102.645 756.955 102.858 755.931 103.283C754.899 103.708 754.009 104.322 753.253 105.117C752.497 105.912 751.906 106.888 751.473 108.03C751.047 109.179 750.835 110.447 750.835 111.848V129.208H744.541V83.3017L744.525 83.3095Z" fill="black"/>
<path d="M780.783 83.3095H787.14V129.216H780.783V83.3095Z" fill="black"/>
<path d="M809.929 129.861C807.4 129.861 805.124 129.444 803.084 128.609C801.043 127.775 799.287 126.625 797.806 125.169C796.325 123.713 795.191 121.996 794.395 120.012C793.6 118.028 793.198 115.895 793.198 113.604C793.198 111.313 793.615 109.109 794.45 107.109C795.285 105.109 796.443 103.369 797.916 101.897C799.397 100.425 801.122 99.2597 803.107 98.4016C805.092 97.5513 807.243 97.1183 809.574 97.1183C811.906 97.1183 814.048 97.5199 816.018 98.315C817.979 99.1102 819.681 100.228 821.114 101.669C822.548 103.11 823.682 104.802 824.493 106.762C825.313 108.723 825.714 110.872 825.714 113.202V115.824H799.247C799.712 118.391 800.878 120.437 802.745 121.973C804.612 123.508 806.998 124.271 809.913 124.271C812.126 124.271 813.985 123.807 815.482 122.87C816.979 121.941 818.192 120.713 819.121 119.201L824.312 122.288C822.8 124.579 820.87 126.413 818.538 127.791C816.207 129.168 813.332 129.861 809.913 129.861H809.929ZM809.574 102.653C807.046 102.653 804.887 103.377 803.107 104.842C801.319 106.298 800.114 108.172 799.492 110.463H819.365C818.901 107.975 817.798 106.054 816.073 104.692C814.34 103.33 812.174 102.653 809.574 102.653Z" fill="black"/>
<path d="M844.43 129.861C840.232 129.861 837.018 128.625 834.781 126.161C832.544 123.697 831.433 120.288 831.433 115.934V97.756H837.845V115.525C837.845 118.202 838.507 120.335 839.83 121.902C841.153 123.476 843.154 124.264 845.832 124.264C846.998 124.264 848.093 124.051 849.125 123.626C850.157 123.201 851.039 122.587 851.78 121.792C852.52 120.996 853.103 120.036 853.528 118.91C853.954 117.784 854.166 116.517 854.166 115.123V97.7639H860.46V129.223H854.285V124.909C853.197 126.421 851.803 127.625 850.118 128.523C848.424 129.412 846.533 129.861 844.43 129.861Z" fill="black"/>
<path d="M867.746 97.7639H873.922V102.133C875.009 100.622 876.403 99.4093 878.089 98.4961C879.783 97.5829 881.728 97.1263 883.95 97.1263C885.935 97.1263 887.731 97.449 889.337 98.0867C890.952 98.7244 892.307 99.6377 893.418 100.826C894.528 102.015 895.379 103.472 895.986 105.196C896.584 106.928 896.892 108.857 896.892 110.99V129.223H890.535V111.455C890.535 108.778 889.857 106.637 888.495 105.046C887.132 103.456 885.131 102.661 882.492 102.661C881.287 102.661 880.168 102.873 879.144 103.298C878.113 103.724 877.223 104.338 876.466 105.133C875.71 105.928 875.119 106.904 874.686 108.046C874.261 109.195 874.048 110.463 874.048 111.864V129.223H867.754V97.7639H867.746Z" fill="black"/>
<path d="M902.721 88.3245C902.721 87.0412 903.138 85.9784 903.973 85.1203C904.808 84.2621 905.871 83.837 907.147 83.837C908.424 83.837 909.55 84.2621 910.385 85.1203C911.22 85.9705 911.637 87.0412 911.637 88.3245C911.637 89.6077 911.22 90.6784 910.385 91.5287C909.55 92.3868 908.471 92.812 907.147 92.812C905.824 92.812 904.761 92.3868 903.942 91.5287C903.122 90.6784 902.721 89.6077 902.721 88.3245ZM904.005 97.7639H910.361V129.223H904.005V97.7639Z" fill="black"/>
<path d="M932.22 129.861C930.156 129.861 928.179 129.475 926.273 128.696C924.367 127.917 922.689 126.814 921.232 125.374C919.774 123.941 918.609 122.209 917.734 120.186C916.86 118.17 916.419 115.934 916.419 113.486C916.419 111.037 916.844 108.754 917.703 106.755C918.554 104.755 919.711 103.039 921.169 101.598C922.626 100.165 924.32 99.055 926.242 98.2756C928.164 97.4962 930.18 97.1105 932.275 97.1105C934.371 97.1105 936.387 97.5671 938.309 98.4803C940.231 99.3936 941.799 100.669 943.004 102.299V97.756H949.298V126.712C949.298 129.042 948.88 131.168 948.045 133.089C947.21 135.01 946.06 136.663 944.603 138.041C943.146 139.419 941.436 140.489 939.475 141.245C937.514 142.001 935.403 142.379 933.15 142.379C929.345 142.379 926.202 141.82 923.737 140.694C921.271 139.568 919.184 137.939 917.474 135.797L922.547 131.664C923.792 133.372 925.21 134.624 926.801 135.419C928.392 136.214 930.472 136.616 933.039 136.616C934.552 136.616 935.922 136.38 937.151 135.915C938.38 135.451 939.428 134.789 940.302 133.931C941.176 133.073 941.854 132.058 942.342 130.877C942.831 129.688 943.067 128.381 943.067 126.94V124.492C941.862 126.161 940.286 127.476 938.349 128.42C936.403 129.373 934.363 129.845 932.228 129.845L932.22 129.861ZM933.032 124.09C934.505 124.09 935.875 123.807 937.143 123.248C938.404 122.689 939.491 121.925 940.404 120.981C941.318 120.036 942.035 118.902 942.563 117.603C943.091 116.304 943.35 114.911 943.35 113.439C943.35 111.966 943.091 110.636 942.563 109.329C942.035 108.03 941.318 106.904 940.404 105.952C939.491 104.999 938.404 104.243 937.143 103.684C935.883 103.125 934.512 102.842 933.032 102.842C931.551 102.842 930.188 103.117 928.92 103.661C927.659 104.204 926.557 104.952 925.627 105.904C924.698 106.857 923.965 107.983 923.445 109.282C922.917 110.581 922.657 111.974 922.657 113.446C922.657 114.919 922.917 116.312 923.445 117.611C923.973 118.91 924.698 120.052 925.627 121.02C926.557 121.988 927.659 122.752 928.92 123.287C930.18 123.831 931.551 124.106 933.032 124.106V124.09Z" fill="black"/>
<path d="M972.086 129.861C969.557 129.861 967.281 129.444 965.241 128.609C963.201 127.775 961.444 126.625 959.963 125.169C958.482 123.713 957.348 121.996 956.552 120.012C955.757 118.028 955.355 115.895 955.355 113.604C955.355 111.313 955.773 109.109 956.608 107.109C957.443 105.109 958.6 103.369 960.073 101.897C961.554 100.425 963.279 99.2597 965.265 98.4016C967.25 97.5513 969.4 97.1183 971.732 97.1183C974.063 97.1183 976.206 97.5199 978.175 98.315C980.136 99.1102 981.838 100.228 983.272 101.669C984.705 103.11 985.839 104.802 986.651 106.762C987.47 108.723 987.872 110.872 987.872 113.202V115.824H961.405C961.869 118.391 963.035 120.437 964.902 121.973C966.769 123.508 969.156 124.271 972.07 124.271C974.284 124.271 976.143 123.807 977.639 122.87C979.136 121.941 980.349 120.713 981.279 119.201L986.47 122.288C984.957 124.579 983.027 126.413 980.696 127.791C978.364 129.168 975.489 129.861 972.07 129.861H972.086ZM971.739 102.653C969.211 102.653 967.053 103.377 965.272 104.842C963.484 106.298 962.279 108.172 961.657 110.463H981.531C981.066 107.975 979.963 106.054 978.238 104.692C976.505 103.33 974.339 102.653 971.739 102.653Z" fill="black"/>
<path d="M993.945 97.7639H1000.12V103.243C1000.78 101.259 1001.87 99.7794 1003.38 98.7874C1004.89 97.7954 1006.67 97.2994 1008.68 97.2994C1009.77 97.2994 1010.77 97.4097 1011.68 97.6222C1012.6 97.8348 1013.36 98.134 1013.98 98.5276L1011.53 104.59C1010.61 103.968 1009.28 103.661 1007.57 103.661C1005.32 103.661 1003.53 104.267 1002.21 105.463C1000.88 106.668 1000.22 108.691 1000.22 111.526V129.239H993.929V97.7797L993.945 97.7639Z" fill="black"/>
</svg>
