<svg width="990" height="1049" viewBox="0 0 990 1049" fill="none" xmlns="http://www.w3.org/2000/svg">
  <path d="M205.958 520.703L354.011 264.224H650.117L798.133 520.703L650.117 777.183H354.011L205.958 520.703Z" stroke="#146EF5" stroke-width="0.600926"/>
  <path d="M168.115 520.703L335.09 231.6H669.041L835.974 520.703L669.041 809.806H335.09L168.115 520.703Z" stroke="#146EF5" stroke-width="0.600926"/>
  <path d="M130.272 520.403L316.171 197.548H687.967L873.818 520.403L687.967 843.259H316.171L130.272 520.403Z" stroke="#146EF5" stroke-width="0.600926"/>
  <path d="M92.4307 520.403L297.252 164.683H706.892L911.662 520.403L706.892 876.122H297.252L92.4307 520.403Z" stroke="#146EF5" stroke-width="0.600926"/>
  <path d="M54.5869 520.703L278.33 132.121H725.816L949.503 520.703L725.816 909.286H278.33L54.5869 520.703Z" stroke="#146EF5" stroke-width="0.600926"/>
  <path d="M243.8 520.703L372.93 297.968H631.192L760.289 520.703L631.192 743.438H372.93L243.8 520.703Z" stroke="#146EF5" stroke-width="0.600926"/>
  <path d="M281.644 520.403L391.851 330.115H612.268L722.447 520.403L612.268 710.691H391.851L281.644 520.403Z" stroke="#146EF5" stroke-width="0.600926"/>
  <path d="M319.486 520.703L410.771 362.866H593.342L684.604 520.703L593.342 678.54H410.771L319.486 520.703Z" stroke="#146EF5" stroke-width="0.600926"/>
  <path d="M357.328 520.704L429.69 395.493H574.416L646.76 520.704L574.416 645.915H429.69L357.328 520.704Z" stroke="#146EF5" stroke-width="0.600926"/>
  <path d="M395.171 520.704L448.611 428.235H555.492L608.919 520.704L555.492 613.173H448.611L395.171 520.704Z" stroke="#146EF5" stroke-width="0.600926"/>
  <path d="M433.013 520.704L467.531 460.977H536.566L571.075 520.704L536.566 580.431H467.531L433.013 520.704Z" stroke="#146EF5" stroke-width="0.600926"/>
  <path d="M470.857 520.703L486.452 493.718H517.643L533.234 520.703L517.643 547.688H486.452L470.857 520.703Z" stroke="#146EF5" stroke-width="0.600926"/>
</svg>
