<svg xmlns="http://www.w3.org/2000/svg" width="1365.333" height="1365.333" version="1.0" viewBox="0 0 1024 1024"><path d="M511.5 98.6c-8.5 2.7-16.4 9.8-21 19.1-2.6 5.1-2.9 6.8-2.9 14.8 0 11.3 2.4 17.9 9.3 25.6 4.3 4.8 9.7 8.2 16.3 10.3 1.3.4 1.7 2.6 2.3 12.5.4 6.7 1.1 12.1 1.4 12.1.4 0 1.2-.5 1.8-1.1.7-.7 2.2-.8 4.6-.1l3.6 1 .3-11.5.3-11.4 5.2-1.8c10.1-3.4 17.9-10.5 22.5-20.7 3.2-6.8 3.2-20.7 0-27.7-2.9-6.3-13.5-17.4-19.1-19.9-5.9-2.7-18-3.3-24.6-1.2m21.2 11c6.6 3.4 11.5 9.8 13.9 18 3.4 11.9-3.7 25.8-15.4 30-5.6 2-15.6 1.7-20-.5-7.6-3.9-12.5-12.1-13-22.1-.6-10.1 1-14.6 7.6-21 8.9-8.7 16.3-9.9 26.9-4.4"/><path d="M516.1 128.6c-2.8 3.5-2.6 6.9.4 9.9 3.3 3.4 7.7 3.3 10.4-.1 2.8-3.5 2.6-5.6-.5-9.3-3.3-4-7.4-4.2-10.3-.5M319.6 110.5c-10.7 4.4-17.9 13.8-20.6 26.9-2.1 10.5 1.2 22.2 8.6 30.5 5.1 5.6 10.1 9.1 14.8 10l3.1.7v38.7l-4.2 1.4c-4.8 1.6-10.6 7.7-12.3 12.8-1.4 4.3-3.8 4.7-20.6 3.9l-13.2-.7-.6-4c-1-6-5.1-13.8-9.6-18.2l-4.1-4-11.1-.3-11-.4-8.7-8.7c-14.8-15.1-27.4-20.4-48.1-20.4-9.4 0-12.7.4-18 2.2-11 3.8-18.1 8.2-26 16.1-8.7 8.6-13.1 16.2-16 27.6-8.5 33.2 10 66.3 43 76.5 8.8 2.8 24 3.2 33 1 11.7-2.9 23-9.3 32.7-18.4 5.6-5.3 9.3-6.6 18.3-6.7 7.6 0 12.4-1.6 16-5.1 4.3-4.4 8.2-11.3 9.5-17.3l1.1-5.1 16.5-.3 16.5-.2 1.2 3.4c1.6 4.3 9 11.1 13.9 12.7 5 1.6 15.2.6 20.7-2.1 4.6-2.2 9.6-8.6 9.6-12.2 0-1.3 3.1-1.5 24-1.5 22.1 0 24.5-.2 31-2.3l7-2.3v-5.6c0-3.1.3-10 .7-15.3.6-9 .7-9.7 2.9-10.2 3.4-.9 9.2-6.3 11.5-10.8 2.4-4.8 2.7-14.3.6-18.5-6.4-12.4-22.5-15.9-33.1-7.1-5.2 4.3-6.9 8.2-7 15.8-.1 8.3 3.3 14.7 10 18.6l4.5 2.6-.3 11.2-.3 11.1-9.5.3c-5.2.2-16.4 0-24.7-.3l-15.3-.7-1.8-4.2c-2.7-5.9-6.6-10.1-11.8-12.6l-4.5-2.2.3-18.6.3-18.5 4-1.3c19.1-6.4 30-26.8 23.8-45-2.3-6.9-5.3-11.3-11.2-16.7-9.9-8.8-23.5-11.2-35.5-6.2m21.9 9.9c5.9 2.7 11.7 8.8 13.6 14.2 2.2 6.3 1.7 16.1-1.1 21.8-7.5 15.6-32.8 16-41.8.7-2.3-4-2.7-5.7-2.7-12.6 0-12.3 4.3-19.7 13.8-24.4 5.6-2.7 12-2.6 18.2.3m77 64.6c2.1 2.2 2.9 4.2 3.3 8 .4 4.6.2 5.4-2.3 8-7.3 7.6-17.5 2.5-17.5-8.8 0-9.2 10.2-13.7 16.5-7.2m-227.9 6.5c2.7.8 6.6 1.5 8.7 1.5 9.1 0 22.7 10.1 29.7 21.9 5.6 9.6 7.3 16.5 6.8 27.5-.8 15.2-6.2 25.8-17.9 35.3-8.6 7-16.6 10.8-27.3 12.9-11.3 2.2-18.4 1.2-30.2-4.5-13.8-6.6-22.4-17-26.9-32.5-3-10.6-3.1-13-.6-22.9 4.9-19 15.6-30.6 34.8-37.7 8.9-3.3 15.6-3.7 22.9-1.5m70 33.2c3.9 8.2 4.5 20.4 1.4 29.7s-4.3 10.5-11.7 11.2c-4.4.5-6.3.3-6.3-.5 0-.6 1.3-1.1 2.9-1.1 4.3 0 8.4-1.8 7.8-3.4-.3-.7-.2-1.8.2-2.5.4-.6.4-3.9-.1-7.3-.6-4.2-.5-6.5.3-7.4.9-1.1.8-1.4-.5-1.4s-1.6 1.1-1.7 5.7c0 4.2-.3 5.2-.9 3.8s-.9-1.5-1-.5c0 .8-.7 2.8-1.4 4.5-1.3 2.7-1.4 2.2-.9-5.6.6-9.5-.9-20.2-3.7-26.7l-1.9-4.2h14.8zm78.2 4.9c3.3 2.3 5.2 6.7 5.2 12.3 0 4.2-.5 5.4-3.1 8-1.6 1.7-4.7 3.6-6.9 4.2-3.5 1.1-4.3.9-8.3-1.4-9.5-5.6-10.3-16.7-1.8-22.4 4.1-2.7 11.5-3.1 14.9-.7"/><path d="M328 138.7c-3.6 4.6-.7 13.3 4.5 13.3 3.8 0 7.5-3.7 7.5-7.4 0-7.6-7.7-11.4-12-5.9M200 197.6c9.9 7.9 21.8 24 25.7 34.9 2 5.5 2 16.3.1 20-.8 1.7-4.1 7.2-7.2 12.4-3.1 5.1-5.5 9.5-5.3 9.8 1.1 1.1 11.1-11.7 14.4-18.4 3.4-7 3.8-8.4 3.7-15.3-.2-14-4.3-24-14.3-34.4-6.3-6.5-10.8-9.4-17.6-11l-3-.8z"/><path d="M174.3 198.9c-7.1 4.4-8 11.5-2.3 17.2 2.3 2.3 2.9 3.9 3.2 8.3.3 4.9 0 5.6-2.4 7.5-1.5 1.2-3 3-3.3 4.1-.5 1.6-1.5 2-5.3 2-4.3-.1-4.9-.4-7.4-4-2.6-3.7-3.1-4-7.7-4-3.9 0-5.6.6-8 2.6-2.7 2.3-3.1 3.2-3.1 7.9 0 3.8.6 6 2 7.8 2.3 2.9 7.7 4.8 11.2 4 2.8-.7 7.8-5.2 7.8-7 0-1.1 1.4-1.3 5.5-1.1 3.4.2 5.5.7 5.5 1.5 0 .6 1.1 2 2.4 3 1.6 1.3 2.5 3.3 3 6.8.4 2.8.9 5.8 1.2 6.7.4 1.3 0 1.8-1.3 1.8-4 .1-7.3 4.8-7.3 10.5 0 4.7 1.3 7.1 5 9 7.7 4 17-1.1 17-9.5 0-4-3.3-10-5.5-10-1.2 0-1.5-1.3-1.5-5.8 0-5.1.4-6.2 2.8-8.5 1.5-1.4 3.3-3.3 4-4.1.8-1 2.9-1.6 5.2-1.6 3.3 0 4.3.6 7.1 4.1 4 5 7 6.3 11.5 4.9 5-1.7 7.4-5.3 7.4-11.2 0-4.3-.4-5.4-3.4-8.4-5.2-5.2-10-4.5-16.4 2.3-2.5 2.6-3.8 3.4-5.5 2.9-1.2-.3-2.9-.6-3.7-.6-.9 0-2.4-1.6-3.5-3.6-1-1.9-2.7-4-3.7-4.5-2.6-1.4-2.6-11.2 0-13.1 5-3.5 5.7-11.2 1.5-15.7-3.7-3.9-7.9-4.7-12-2.2M701 108.9c-8.2 2.7-16.8 9.9-20.8 17.6-2.5 4.5-2.7 6-2.7 16 0 9.8.3 11.6 2.7 16.7 3.5 7.6 10.2 13.9 18.3 17.4l6.5 2.8v12.7c0 6.9.3 15.4.6 18.7l.7 6.2-4.4 1.8c-4.9 2.1-9.8 7.1-12.9 13.2l-2 4h-23.9c-20.9 0-24-.2-24.5-1.6-.3-.9-.6-5.7-.6-10.8v-9.2l4.3-3.1c2.9-2 5.3-4.9 7-8.4 3.6-7.1 3.6-12.9 0-20-2.3-4.5-3.7-5.9-8.2-8.2-5.9-2.9-10.2-3.3-16.2-1.6-8 2.5-14.8 11-14.9 18.8 0 8.2 4.9 16.5 12 20.1 4.6 2.3 5 4 5 20.4v12.1l5.8 1.8c4.6 1.4 10.6 1.8 30.2 2.2l24.5.5 3.1 5.2c4.6 7.6 10.1 10.2 22.1 10.2 8.7.1 9.3 0 13-3 3.4-2.7 5.1-4.9 8.8-10.8.8-1.3 3.5-1.6 17-1.7l15.9-.1 1.1 5.4c1.3 6.5 5 13 10.3 18.2 3.9 3.7 4.2 3.8 12.8 4.3 14.3.7 14.9.8 22.2 7.5 12.9 11.7 23.1 16.7 38.5 18.8 12.1 1.7 27.7-.9 38.8-6.5 5.6-2.9 15.2-10.5 19.4-15.6 5.4-6.5 11.3-18.6 13-26.7 4.4-20.7-2-41.6-17.4-57.3-14.2-14.4-31.7-20.3-53.1-17.9-19.1 2.2-34.3 10-45 23.2l-4.5 5.6-11.2.3c-9.4.4-11.6.7-14 2.5-5.3 3.9-9.1 11.5-10.8 21.6l-.6 3.8h-31.700000000000003l-1.1-3.3c-1.6-4.8-6.5-10.2-11.5-12.7l-4.4-2.1-.7-13.3c-.4-7.3-.4-16.1 0-19.4.7-5.9.8-6.1 4.3-7.3 15.3-4.9 25.3-20.2 23.9-36.4-1-12.6-9.2-24.9-20.3-30.4-3.8-2-6.8-2.6-13.4-2.8-4.7-.1-9.6.1-11 .6m17.2 11c10.7 4.5 16.1 13 16.1 25.1 0 5.6-.5 8.5-2 11.5-4.5 8.6-13.1 13.2-22.9 12.2-23.8-2.5-30.3-34.7-9.7-47.7 5.6-3.6 11.9-4 18.5-1.1m-81.6 63.8c2.1 1.3 4 4.9 4.5 8.3.9 5.7-4.7 13-10 13-7.7 0-14-12.5-9.5-18.9 3.4-4.7 9.8-5.8 15-2.4m239.6 8.4c16.8 5.6 30.9 20.5 35.3 37.4 5 19.4-3.8 41.5-21.2 53.1-7.3 4.9-20.3 9.4-27 9.4-22.1 0-43.1-12.6-52.6-31.8-4.2-8.5-4.2-8.6-4.1-19.6.1-13.2 1.8-18.9 9-29.8 7.7-11.5 15.2-15.8 31.6-18.3 5.6-.8 10.4-1.7 10.6-2 1.3-1.3 12.9-.3 18.4 1.6m-78.9 30.6c-2.7 4.5-2.8 5.6-3.1 19.1-.4 12.9-.2 14.6 1.7 18.2 1.2 2.3 2.1 4.3 2.1 4.7 0 .3-2.6.3-5.7 0-4.8-.5-6.2-1.1-8-3.4-6.8-8.4-7.8-26.9-2.1-39l2-4.3h15.9zm-78.3 8.1c3.3 3.3 5.5 9.9 4.6 13.5-1 4-5.4 8.6-9.5 9.8-3.2 1-4.3.8-7.9-1-5-2.5-7.2-6.4-7.2-12.6 0-7.8 4.7-12.4 12.8-12.5 3.5 0 4.9.6 7.2 2.8"/><path d="M707 138c-2.9 2.9-2.7 9 .3 11.8 7.6 7.1 16.1-3.5 8.8-10.9-3.4-3.4-6.3-3.7-9.1-.9M841.8 196.4c-9.7 3.5-19.5 12.1-23.6 20.9-4.6 9.7-5.5 14.3-5 25.1.4 9.4.8 11.1 4.1 17.7 4.1 8.5 5.5 10.2 12.1 15.2 6.5 5.1 7.6 4.6 2.7-1.2-4.7-5.6-8.9-13.7-12.1-23.5-2.1-6.4-2.2-7.5-1.1-13.5 2.7-14.3 10.7-26.4 23.9-35.8 8.4-6 8-8.1-1-4.9"/><path d="M862.4 198.4c-4.1 1.8-6.4 5.2-6.4 9.4 0 3.9 2.3 8.7 4.5 9.5 1.1.5 1.5 2.2 1.5 6.6 0 5.7-.2 6.1-3 7.6-1.6.8-3.3 2.7-3.6 4-.5 2.2-1.2 2.5-5 2.5-3.9 0-5-.5-8.3-4-2.2-2.3-4.7-4-6-4-5.6 0-11.1 5.7-11.1 11.5 0 5.6 5 11.5 9.8 11.5 3.6 0 8.1-2.8 8.8-5.4.4-1.8 1.5-2.6 4.2-3.1 2.1-.3 4.5-.8 5.5-1.1 1.1-.4 1.7 0 1.7 1 0 .8 1.4 3.1 3 4.9 1.7 2 3 4.7 3.1 6.3s.4 4 .8 5.4c.6 2 .2 2.8-2 4.2-3.7 2.3-5.6 8.8-3.8 13 1.4 3.5 6.3 6.8 9.9 6.8 4.2 0 8.8-3.5 9.9-7.6 1.4-5.2.3-9.1-3.5-12.2-3-2.4-3.4-3.2-3.4-7.5 0-4 .5-5.3 2.8-7.5 1.6-1.5 3.2-3.5 3.5-4.5.5-1.3 1.8-1.7 5.5-1.7 4.2 0 5 .3 6 2.4 1.7 3.8 5.4 5.8 10.3 5.4 3.6-.3 4.7-.8 6.6-3.7 3.2-4.7 3.2-12 0-15.6-3.3-3.8-10.1-4.5-14-1.5-1.6 1.3-3.3 3.3-3.7 4.6-.8 2.1-1.6 2.4-6 2.4-3.4 0-5-.4-5-1.3 0-.7-1.3-2.8-3-4.7-2.2-2.7-2.9-4.5-3-7.9 0-3.8.5-4.9 3.5-7.7 3-2.7 3.5-3.8 3.5-7.8 0-8-6.9-13.2-13.6-10.2M578.5 113.8c-8.6 4-13.2 14.5-10.6 24 1.4 5.3 5.2 10.9 8.6 12.4 1.9.9 2.3 2 2.9 9.1.3 4.5.6 20.9.6 36.4v28.1l5.5 3 5.5 3v-77.6l2.9-.7c6.4-1.4 12-10.4 12.1-19.1 0-14.3-15-24.5-27.5-18.6m11.1 9.7c2.4 1 3.9 2.5 5 5 1.7 4.3 1.1 7-2.4 10.7-3.4 3.7-7.2 3.6-11.4-.1-2.7-2.4-3.3-3.6-3.3-6.9 0-4.9 3.4-9 8.3-10.1.1-.1 1.8.6 3.8 1.4M452.5 114.4c-4.6 2-9.6 6.6-11.1 10.3-.8 1.8-1.4 6.1-1.4 9.6 0 5.2.5 7.1 2.9 10.8 1.6 2.7 4.3 5.2 6.4 6.2l3.5 1.7.4 36.9c.1 20.3.6 37.2.9 37.5s2.9-.7 5.8-2.2l5.2-2.7-.3-35.8c-.2-29.1-.1-35.7 1-35.7 5.3 0 12.3-16.3 10.2-23.9-2.8-10.3-14.4-16.7-23.5-12.7m10.4 11.2c2.6 2.1 3.1 3.3 3.1 6.9s-.5 4.8-3.1 6.9c-3.5 3-6.5 3.3-9.5.8-5.2-4.1-5.6-8.8-1.3-13.7 3.7-4.2 6.6-4.5 10.8-.9M762.3 173.5c-6.3 2.7-9.1 11.2-5.8 17.5 2.5 4.8 6.2 7 11.7 7 4.3 0 5.5-.5 8.2-3.3 6.3-6.2 5.2-15.4-2.3-20.4-3.9-2.6-7.2-2.8-11.8-.8M268.9 175.3c-4.3 2.9-5.9 6-5.9 11.6 0 3.7.5 4.9 3.9 8.2 4.4 4.5 8.7 5.1 14.8 2.2 5.2-2.4 7.5-6.7 7-12.7-.9-10-11.4-15-19.8-9.3M364.7 200c-3.5 2.8-3.6 7.2-.2 10.5 4.5 4.6 11.5 2.4 13.1-4.1 1.6-6.4-7.2-10.8-12.9-6.4M667.2 200c-3.3 3.1-3.8 6.7-1.5 9.8 4.4 5.9 14.3 2.9 14.3-4.3 0-6.4-8.1-9.9-12.8-5.5M516.5 208.3c-2.2 1.3-9.9 6.2-17.1 10.9-36.8 24-63.2 36.2-103.8 47.8-11.2 3.2-59.5 14.3-67.7 15.5-2.5.4-5.1 1-5.8 1.4-1 .7-1.2 16.9-.8 76.7.3 64.4.6 77.4 2 85.7 8.3 49.4 25 89.8 52.4 126.8 8 10.8 29 33.5 39 42.2 13.9 12.1 39.4 30 56.8 40s42 19.7 49.8 19.7c12 0 39.7-11.9 66.2-28.4 72.9-45.4 119.7-114.6 131.6-194.9 2.8-19.5 3.7-51.3 3.2-114.2l-.5-52-2.1-1.2c-1.2-.7-8.9-2.8-17.2-4.7-8.2-1.9-19.9-4.6-26-6-55.8-12.9-90.3-27.1-130-53.6-14.8-9.8-22-14-24.1-14-1.1 0-3.7 1.1-5.9 2.3m8.8 12.4c1.8.9 8.4 5.1 14.8 9.4 34.1 22.8 65.5 37.9 97.4 46.9 13.6 3.8 44.9 11.2 61 14.5 4.4.8 8.8 1.8 9.8 2.1 1.8.6 1.9 3.2 1.4 68.7-.3 41.6-.9 72.3-1.6 78.7-1.5 13.2-7 37.3-12 52.3-24.6 73.2-82.4 132.9-158.9 164.1-6.2 2.5-12.8 4.6-14.7 4.6-6.9 0-31.3-10-48-19.8C398.6 598 354.8 538.4 338 456.5c-3.6-17.3-4-26.8-4.1-96.2l-.2-67.8 3.4-.3c24.8-2.1 83.3-18.2 110.6-30.5 17.6-7.9 44.7-23.1 59.8-33.5 7.2-5 13.4-9.1 13.8-9.1.4-.1 2.2.6 4 1.6"/><path d="M517.9 241c-1.9 1.6-6.3 4.6-9.6 6.7s-11.4 7.2-17.9 11.3c-27.4 17.2-55.7 29.1-92.4 38.9-15.8 4.2-39.2 9.1-43.6 9.1h-3.5l.4 65.2c.4 61.4.5 66 2.5 76.5 7.7 40.4 20.7 73 40 99.8 16.5 23 34.6 41.3 58.8 59.6 18.3 13.9 44.4 28.3 61.5 33.9 6.4 2.1 6.9 2.2 12.3.6 13.8-4 35.5-15.1 54.6-27.8 38-25.4 74.7-68.9 90.7-107.6 12.5-30.1 17.6-50.8 20.3-82.2 1.1-12.3 1.4-117 .4-117-1.8 0-63.8-15.4-69.4-17.2-12.8-4.1-31.7-12.1-46.4-19.5-15.3-7.7-19-9.9-35.9-21.2-12-8.1-18-11.9-18.7-12-.3 0-2.1 1.3-4.1 2.9m3.5 34.3c.8 19.7-1.6 16 19.9 31.9 18.9 14.2 33.1 22.9 46.9 28.8 17.5 7.5 44.8 14.9 61.8 16.7 4.8.5 6 .9 5.5 2.1-.3.8-1 9.8-1.5 20.1-.5 10.2-1.1 20.4-1.4 22.6s-1 8-1.6 13c-2.5 19.9-14.1 56.5-25.5 80.2-12.1 25.1-22 39.1-41.8 59.1-14.1 14.3-25.8 23.2-41.7 31.8-20.3 10.9-16.8 10.7-33.6 2-17.8-9.2-37.4-23.6-52.7-38.8-5.9-5.9-10.7-10.8-10.6-11 .6-.7-3.5-6-5.4-6.9-1.4-.8-1.8-.8-1.3 0 1.2 1.8-.9 1.2-3.2-.9-1.2-1.1-2.8-2-3.7-2-.8 0-1.5-.4-1.5-1 0-.5-1.1-2-2.5-3.4s-2.5-3.1-2.5-3.9c0-.7-1.1-2-2.5-2.7-1.8-.9-2.5-2.2-2.5-4.2 0-2.9-3-6.8-5.2-6.8-.9 0-.8-.4.2-1 1.3-.9 1.3-1 0-1s-1.3-.1 0-1c1.2-.8.9-1.2-1.7-2.2-3-1.1-3.3-1.6-3.3-5.5 0-2.3-.5-4.5-1-4.8-.6-.4-.8-1.1-.5-1.6s-.2-.6-1.1-.2c-1.2.4-1.5.3-1-.5.4-.7.1-1.2-.8-1.2s-1.6-.7-1.6-1.5-.9-1.5-2-1.5c-1.7 0-2-.7-2-4s-.3-4-2-4c-1.8 0-2-.7-2-6s-.2-6-2-6c-1.3 0-2-.7-2-2s-.7-2-2-2c-1.7 0-2-.7-2-4s-.3-4-2-4c-1.3 0-2 .7-2 2s-.7 2-2 2c-1.9 0-2-.7-2-14s-.1-14-2-14c-1.3 0-2-.7-2-2s-.7-2-2-2-2-.7-2-2-.7-2-1.9-2c-1.6 0-2.1-.8-2.3-4.3l-.4-4.2-.9 5.5-1 5.5-.6-8.5c-.4-4.7-.7-26.8-.8-49.3-.1-40.6-.1-40.7 1.9-40.7 1.2 0 1.9-.4 1.6-.9-.4-.5.5-.8 1.9-.6 4.9.5 26.1-2.7 34-5.2 2.8-.8 7.5-2.4 10.5-3.5s7.5-2.6 10-3.3c4.2-1.3 21.4-7.4 30.8-10.8 6-2.3 28.6-14.3 35-18.6 7-4.7 6.9-4.7 12.7-7.2 2.8-1.2 5.4-2.1 5.9-2s1.2-.2 1.5-.7 2.4-1.8 4.6-2.8c2.2-1.1 4.4-2.9 5-4.1.5-1.2 1-2.1 1.1-2s.5 7.8.8 17M375.8 472c1 0 1.3.3.7.8-1.6 1.1-1.2 3.5.9 5.6 1.2 1.2 1.6 2.7 1.3 4.5-.4 2-.2 2.8.9 2.8.8 0 1.4-.4 1.4-.9 0-.4.7-.8 1.5-.8 1.8 0 2-2 .3-2-.9-.1-.8-.4.2-1.3 1-.8 1.4-2.5 1.2-5l-.3-3.7h8.1v4c0 3.3-.3 4-2 4-1.8 0-2 .7-2 8 0 4.7.4 8 1 8s1-1.8 1-4 .5-4 1-4c.6 0 1 3.2 1 7.5 0 6.7-.2 7.5-1.9 7.5-1.6 0-3.5 3.1-3.2 5.2.1.5-.1.8-.4.8-1.3 0-11.8-29.5-12.8-36-.3-1.9-.3-2.9 0-2.3.2.7 1.2 1.3 2.1 1.3"/><path d="M517.9 326.9c-16 13.4-37.6 27-53.7 33.7-12.3 5.2-36 13-42.5 13.9-2.6.4-5 1.1-5.3 1.6-.6 1.1 1.3 27.2 2.7 35.4 8.7 52.3 29.3 93.8 62.1 125 14.7 14 35.5 26.3 42.2 25.1 3.8-.7 19.7-10.1 29.3-17.3 15.4-11.5 35.7-36.3 46.4-56.6 16.2-30.9 28.3-73.9 30.1-107.1l.2-4.8-9.4-2.4c-14.5-3.7-30.4-9.1-42.5-14.5-17.2-7.7-20.9-10.1-53.6-34.6-1.2-.9-2.3-.5-6 2.6m4.4 217.3-.8 5.6-9.1-5.2c-36.7-21.1-63.1-61.3-77.4-117.4-1.8-7.4-3.8-20.1-5.4-36.3l-.6-5.6 5.1-.6c6.3-.8 25.8-7.3 37.3-12.7 10.2-4.6 22.1-11.6 39.1-22.8l12-7.9.3 98.6c.1 54.2-.1 101.1-.5 104.3M275.5 299.6c-4.3 2.2-6.4 4.4-8.6 8.6-2.3 4.5-2.5 13.7-.5 17.6 6 11.4 23.9 13.8 31.9 4.2 5.9-6.9 6-16.5.3-24.3-5-6.9-16.1-9.8-23.1-6.1m14.3 12.4c2.9 4.3 2.8 7.1-.4 10.9-3.7 4.4-8.7 4.4-11.4-.2-2-3.2-2.6-8.1-1.4-11.2.9-2.3 6.3-4.5 8.9-3.5 1.1.4 3 2.2 4.3 4M752.5 299.4c-3.7 1.7-8 6.2-9.4 9.9-2.5 6.6-.2 17.7 4.5 21.9 7.3 6.5 20.3 6.1 26.6-.9 3.5-3.9 6.1-11.4 5.4-16-.7-5.7-5.8-13.1-10.2-14.9-4.2-1.8-12.9-1.7-16.9 0m12.9 10.7c2 1.6 2.6 2.9 2.6 6 0 5.2-1.3 7.4-5 8.8-5.7 1.9-11-2-11-8.1 0-7.5 7.5-11.3 13.4-6.7M801.3 313.9c-6.3 2.9-9.6 8.6-9.7 16.4 0 7.4 1.8 11.4 7.1 15.4 3.1 2.4 4.6 2.8 9.7 2.8 7.9 0 12.2-2.5 15.8-9 3.5-6.3 3.5-10.7.2-17.3-4.6-9.2-13.7-12.5-23.1-8.3m13.4 10.7c2.1 2.1 2.4 3.2 2 6.1-1.3 7.7-8.5 10.9-12.6 5.7-6.6-8.4 3.1-19.3 10.6-11.8M226.5 314.6c-6.8 3.5-9.5 7.9-9.5 15.4 0 9.1 4.6 15.6 12.9 18.1 9.8 2.9 20.7-4.2 21.8-14.4.9-7.7-3.2-15.9-9.8-19.2-3.7-2-11.6-1.9-15.4.1m12.9 10.5c3.3 3.9 3.4 8.2.1 11.4-3.8 3.9-8.6 3.2-11-1.6-2-3.7-1.9-5.8.5-9.7 2.7-4.4 6.8-4.4 10.4-.1M147 351.6c-11.1 2.2-26.2 9.7-32.8 16.4s-9.8 11.4-13.4 20.2c-2.6 6.2-3.1 9-3.5 18.3-.6 13.2.6 20 5.2 29.3 6.7 13.2 18.4 23.9 32.3 29.6 7.3 2.9 8.5 3.1 21.2 3.1 11.2 0 14.7-.4 20.6-2.2 6.9-2.2 20.1-10 23.7-14 1.6-1.9 2.6-2 13.6-1.5 16.5.7 20.8-.1 25.1-4.6l3.5-3.7 23.5.8c12.9.5 28.1.5 33.8.2l10.2-.7v-5.2c0-2.9-.3-8.1-.6-11.5l-.7-6.1H249l.1-9.8c0-8.6-1.6-20.5-3.6-25.5-.7-1.6 1.2-1.7 31.9-1.7H310v-12h-30.2c-23.1.1-31.2.4-34.2 1.5l-3.8 1.3-3.9-4-3.8-4-16.9.7-16.8.7-6.8-4.7c-3.7-2.7-10.2-6.1-14.4-7.8-6.6-2.5-9.3-3-18.7-3.3-6-.1-12.1 0-13.5.2m32.1 14c29.9 14.2 36.5 57 12.1 78.4-10 8.9-29.2 15.1-40 13-18-3.4-35-16.3-39.7-30.3-2.6-7.9-3.1-20.2-1-28.7 5.5-22.3 29.3-37.8 48.6-31.5 13.1 4.2 26.6 16.3 31.4 28.1 3.9 9.8 4.3 16.8 1.5 24.6-3.5 9.9-7.8 16.7-15.4 24.5-3.8 4-6.6 7.3-6.3 7.3 2.6 0 12-5.5 15.9-9.3 4.9-4.7 11-13.5 12.9-18.4 3.6-9.5 2.9-24.2-1.8-34-3.2-6.8-14.3-18.3-21-21.7-2.9-1.4-9-3.3-13.5-4.1l-8.3-1.4 9 .2c7.8.2 9.9.6 15.6 3.3m52.3 14.6c4.9 13.5 5.8 18.9 5.3 30.7-.5 12.3-2.2 20.5-3.8 18-.5-.8-.4-1.5.1-1.7 1.8-.6 1.1-5.7-1-7.5-1.1-.9-3.5-1.7-5.4-1.7-3 0-3.4-.4-4-3.1-.3-1.7-.6-5-.6-7.3 0-2.2-.7-5.4-1.5-7-.8-1.5-1.5-3.3-1.5-4 0-3.1-2.4-8.9-6-14.5l-4-6.1h20.8z"/><path d="M149.4 375.4c-2.8 2.8-3.4 4.1-3.4 7.7 0 3.4.6 4.9 3 7.4 1.8 1.8 3.3 4.7 3.7 6.8.5 3.1.1 4.1-2.3 6.7-2.5 2.6-3.6 3-8 3-4.5 0-5.2-.3-6.2-2.5-1.6-3.5-7.1-5.9-11.5-5.1-4.9.9-7.7 4.7-7.7 10.1 0 3.7.5 4.8 3.5 7.4 5 4.3 10.4 4.3 13.7 0 2.3-2.8 2.8-3 8.3-2.7 4.9.3 6.1.7 7.6 2.8 2.4 3.4 3.6 13 1.7 13-2.9 0-5.8 4.4-5.8 8.9 0 3.6.6 4.9 3.4 7.7 1.9 1.9 4.4 3.4 5.5 3.4 5.4 0 11.1-5.7 11.1-11 0-2.8-2.5-7.6-5-9.3-1.8-1.3-1.9-1.9-1-6.7 1.1-6 2.9-8.5 6.7-9.5 2-.5 3.2 0 5.2 1.9 3.7 3.5 6.1 3.3 10.4-1.2 6.3-6.4 4.4-12.8-4-13.9-3.5-.5-4.2-.2-6.6 2.7-1.5 1.7-2.7 3.6-2.7 4.1 0 2-3 .7-5.9-2.6-4.1-4.8-4.4-8.8-.9-13.5 4.5-6.2 3-14.3-3.3-17.6-4.1-2.1-5.7-1.8-9.5 2M875 352.5c-8.4 2.1-12.1 3.9-19.9 9.9-6.6 5-7.5 5.4-10.4 4.5-1.8-.5-10.5-.9-19.5-.9-16.2 0-16.3 0-18.9 2.6l-2.6 2.6-34.1.2-34.1.1-.3 5.6c-.3 5.4-.2 5.7 2.4 6.3 1.5.4 15.8.4 31.9 0 18.3-.4 29.4-.3 29.8.3.3.5.1 3.6-.4 6.9-.5 3.2-1.2 11.5-1.6 18.4l-.5 12.5-9.7-.6c-13.5-1-50.4-1-51.7-.1-.6.4-1.4 5.6-1.7 12.1l-.6 11.4 34-.7c18.6-.3 34.5-.9 35.3-1.2 1-.4 2.4.9 4 3.4 2.3 3.7 3 4.1 8.2 4.8 3.2.4 11.6.4 18.8.1l13-.5 5 4.4c6.2 5.4 16.2 10.7 23.6 12.5 8.8 2.2 24.1 1.7 33.5-.9 10.9-3.1 16.8-6.6 24.6-14.2 7.7-7.5 13-17.1 16-28.8 4.8-19-.5-38.1-14.9-53.4-12.4-13.1-23.2-17.8-41.7-18.4-8.2-.2-13.8.1-17.5 1.1m14.4 9.3c.3.5-2.1 1.4-5.3 2-10.2 2.1-23.5 13-28.9 23.7-5.5 11-6.7 24.4-3.2 35.7 2.3 7.6 10.1 18.5 15.9 22.4 3.9 2.5 14 6.8 14.7 6.1.2-.2-2.4-3-5.7-6.3-10.7-10.3-11.9-11.8-15.2-18.4-3-6-3.2-7.2-3.2-16.5 0-9.7.1-10.4 3.9-18 5-10.3 13.5-18.8 23.6-23.9 8.2-4.1 12.6-4.5 21.1-2 15 4.4 28 19 31 34.9 3.4 18.1-5.5 38.4-20.7 47.5-13 7.8-25.4 9.8-39.2 6.1-9.5-2.5-14.6-5.6-22.4-13.9s-10.4-13.3-12-23.5c-4.5-29.2 14.9-54.9 42.9-56.6 1.2 0 2.4.3 2.7.7m-50.9 15.3c.7.7-3.1 7.5-5.7 10.1-.9.9-2 4-2.4 6.8-.5 3.9-1.2 5.4-2.8 6-1.2.5-1.5.9-.8.9.9.1 1.2 2.7 1.2 9.6v9.5h-4.9c-2.7 0-5.3.6-5.9 1.2-1.2 1.6-2.1 8.9-1 8.2.4-.3.9 0 .9.5.1.6.2 1.6.3 2.3.1 1.5 2.6 2.3 2.6.8 0-.6.4-.8 1-.5.5.3 2.1-.2 3.6-1.1 2.6-1.8 2.6-1.7 5.9 2.2l3.3 3.9-3 .8c-1.6.4-5.3.7-8.1.5-4.6-.3-5.4-.7-7.4-3.7-6.5-9.6-7.7-30-2.8-47.6 1.5-5.5 2.9-10.4 3.2-10.8.6-1 21.8-.5 22.8.4"/><path d="M889.9 375.3c-3 2-3.4 2.8-3.7 7.4-.3 4.7-.1 5.3 2.8 7.3 2.9 2.1 3.1 2.5 2.8 7.8-.3 5.2-.6 5.7-3.6 7.5l-3.4 2-2.1-2.6c-1.2-1.5-3.4-3.1-4.9-3.6-4.9-1.8-12.8 1.9-12.8 6.1 0 4.8 5.5 10.8 10 10.8 1.2 0 3.3-1.1 4.8-2.5s3.9-2.5 5.5-2.5c3.4 0 5.2 3.6 5.9 11.7.5 4.8.3 5.2-1.9 5.8-4.7 1.1-5.8 9.6-1.8 14.3 5.3 6.3 12.6 5.7 15.9-1.3 2.3-4.8 1.5-9.3-2.4-13-3.3-3.2-3.7-5.9-1.6-10.9 2.1-5.1 5.1-7.6 8.9-7.6 2.7 0 4 .8 6.6 4 2.6 3.3 3.8 4 6.7 4 5.2 0 10.4-5.3 10.4-10.7 0-4.8-4.2-9.4-8.6-9.5-3.5-.1-8.9 2.5-9.7 4.7-.5 1.1-2.1 1.5-5.6 1.5-4.2 0-5.3-.4-7-2.6-3.1-3.9-2.7-8.9.9-13.1 4.7-5.3 3.4-13.4-2.5-16.1-3.7-1.7-5.8-1.5-9.6 1.1M277.2 460.9c-9.1 5.8-10.4 18.4-2.8 26.9 4.4 4.9 4.8 6.6 4 13.8-.5 5.6-.9 6.3-3.1 6.9-3.5.8-11.8 9.4-13.4 13.8l-1.3 3.7h-22.4l-.6-4.5c-.9-5.7-6.1-13.5-10.6-15.8-2.9-1.6-5.1-1.8-13.1-1.3l-9.6.5-5.3-4.5c-19.7-16.8-46.9-16.3-64.4 1.3-17.2 17.4-16.6 45.3 1.3 64.7 13.3 14.3 38.6 16.8 56 5.6 3.2-2.1 7.8-6 10.2-8.9l4.4-5.1h21.299999999999997l4.1-4.7c2.5-2.8 4.7-6.6 5.6-9.8l1.5-5.1 11 .1h11l3 5.2c9.4 16.4 33.4 14.8 40.7-2.6l1.5-3.4 16.8.6 16.9.6-1.9-3.2c-1-1.8-2.3-4.9-3-7l-1.2-3.9-12.8.4-12.8.3-2.6-4.6c-3.3-5.9-8.1-10.6-12.3-12.1l-3.3-1.2v-7.3c0-6 .3-7.3 1.6-7.3 5.2 0 11.3-9 11.4-16.5 0-5-3.5-12.2-7.3-14.9-4.1-3-14.2-3.4-18.5-.7m13.2 10.2c3.1 3.7 3.3 7.7.5 11.3-2.6 3.3-5.9 3.3-8.9.1-3.4-3.7-3.3-9 .4-12.1 3.6-3.1 4.9-3 8 .7m-114.7 27.4c5.6 1.7 13.5 5.8 15.3 8 .7.8 1.8 1.5 2.5 1.5 3.8 0 10.5 15.7 10.5 24.8 0 7.8-2.1 13.6-7.5 20.5-11.6 14.7-27.6 19.6-42.2 12.8-9.7-4.6-14.7-9.1-18.4-16.7-8.1-16.3-2.8-36.5 11.8-45.5 5.3-3.3 15.2-6.8 19.4-6.8 1.9-.1 5.8.6 8.6 1.4M224 517c1.1 2.2 2.4 6.6 2.8 9.7.8 6.5 0 16.9-1.6 18.5-.5.5-3.8 1.2-7.2 1.5l-6.2.6 2.2-4.3c1.9-3.6 2.1-5.4 1.7-12.4-.3-5.4-1.2-9.7-2.5-12.4-2.2-4.6-2-4.9 5-5.1 3.4-.1 3.9.3 5.8 3.9m64.7 1.5c3.7 2.6 6.3 7.9 6.3 13 0 4-.5 5.2-3.4 8.1s-4.1 3.4-8 3.4-5.1-.5-8.6-3.8c-3.6-3.5-4-4.4-4-8.8 0-5.6 1.7-8.6 6.4-11.5 3.7-2.3 8.4-2.4 11.3-.4"/><path d="M160.9 505.9c-3.6 3.6-3.7 6.4-.4 9.7 2.7 2.7 3.4 7.9 1.5 11.5-1.6 2.9-7.7 2.6-10.2-.6-2.8-3.6-8.9-3.5-11.7.1-3.1 3.9-2.7 7.7 1 10.8 4 3.4 8.3 3.4 10.5.1 2-3 6.3-3.4 8.7-.7.9 1 2 3.8 2.3 6.3.5 3.9.3 4.7-2 6.8-3.6 3.4-3.6 9.1 0 12 7.6 6 17.4-2.6 11.5-10.1-2.9-3.7-3.7-10.9-1.4-13.5 3.1-3.6 6.6-3.7 10.2-.2 3.7 3.5 6 3.3 10.3-1 4.1-4 4.5-7.5 1.4-10.5-3.5-3.6-7.7-3.4-10.9.4-1.9 2.3-3.4 3-6 3-6.6 0-8.8-6.4-4.2-12.4 1.4-1.8 2.5-4.5 2.5-6 0-3.3-4.9-8.6-8-8.6-1.2 0-3.5 1.3-5.1 2.9M751 460.8c-4.1 2.3-7 6.7-8.1 12.6-1.2 6.3.6 11.4 5.7 16.3 4.4 4.2 4.4 4.3 4.4 11.1s0 6.8-3.4 8.4c-5.2 2.5-10.2 7.4-12.6 12.3l-2.2 4.5h-23.700000000000003l-2.7 5.7c-1.6 3.2-3 6.2-3.2 6.7-.3.6 5.6.7 14.6.3l15.1-.7 3.5 5.4c5.1 8 10.9 11.1 20.6 11.1 8.3 0 11.7-1.4 16.9-6.6 1.8-1.7 3.8-4.6 4.6-6.5l1.4-3.4h11.5c12.9 0 11.4-.8 13.1 7.3.7 3.5 6.2 10.7 9.1 11.7 1.4.6 6.5 1 11.4 1h8.8l6.4 6.3c4.5 4.5 8.6 7.5 14.2 10.2 7.1 3.4 9 3.9 17.7 4.3 16.1.8 27.7-4.1 37.2-15.5 18-21.6 14.6-51.2-7.8-66.9-7.7-5.4-13.9-7.5-24.5-8.1-14.3-.9-26.2 3.2-34.8 11.9l-4.7 4.8h-25.4l-2.9 4.2c-2.9 4.2-6.2 12.4-6.2 15.3 0 1.2-2 1.5-11.4 1.5h-11.3l-1.7-4.4c-1.9-4.9-7.3-10.8-11.6-12.6-2.6-1.1-2.9-1.7-3.5-8-.8-8.2-.2-10.6 3-11.4 4.6-1.2 7.5-10.3 5.5-17.6-.6-2.4-2.8-6-4.9-8.3-3.4-3.5-4.4-4.1-9.2-4.4-4-.3-6.3.1-8.9 1.5m139.3 39.4c12.1 5.7 21.7 18.3 22.5 30 .9 11.6-6.1 25.8-15.5 31.9-6.4 4-14.5 6.9-19.6 6.9-7.1.1-20.1-5.7-26.8-11.8-7.9-7.2-9.4-11.4-9.4-25.7 0-10 .3-11.5 2.7-16.1 8.1-15.4 29.9-22.6 46.1-15.2m-57.5 14.3c.1.1-.5 1.5-1.3 3.2-2.3 4.5-3.7 17.6-2.5 22.9.6 2.5.8 5 .5 5.5-.8 1.1-8.5 1.2-10.3 0-1.4-.9-4.1-11.5-4.2-16.3 0-4.9 2.2-13 4.1-14.9 1.6-1.6 2.8-1.8 7.7-1.3 3.1.4 5.8.8 6 .9m-66.2 5.6c3.1 2.9 5.8 10.1 5 13.3-1 3.9-5.4 8.5-9.6 9.7-3.2 1-4.4.9-7.6-.7-5.4-2.7-7.9-6.6-7.9-12.4 0-5.2 1.6-7.8 7-11.2 3.8-2.4 9.8-1.8 13.1 1.3"/><path d="M872.5 505.5c-3.5 3.4-3.4 8.8 0 11.1 1.8 1.2 2.5 2.5 2.5 4.9 0 5-.8 6.3-4.7 7.6-3.3 1.1-3.6 1-6.8-2.5-4-4.4-7.1-4.6-11.5-1-2.6 2.2-3.1 3.3-2.8 6.3.2 2.7 1.1 4 3.7 5.8 4.4 3 5.1 2.9 9.7-.8 2.9-2.3 4.4-2.9 6.4-2.4 4.1 1.1 5 2.4 5 8.1 0 4-.6 6.2-2.5 9-3.2 4.7-3.2 7.7.1 10.3s8.1 2.7 11.3.2c2.1-1.6 2.3-2.4 1.8-6-.3-2.4-1.3-5.1-2.2-6.1-1.3-1.5-1.5-2.9-1-7.4.8-6.1 1.5-7 6.2-8.1 2.9-.6 3.6-.3 5.8 2.4 1.4 1.6 3.4 3.3 4.4 3.6 7.5 2.4 13.4-11.4 6.8-16-3.4-2.3-6-1.8-9.7 2-2.7 2.8-4.2 3.5-7.1 3.5-4.1 0-5.4-1.1-6.4-5.7-.5-2.6-.1-3.9 1.9-6.6 3.6-4.7 3.4-8.8-.5-12.1-3.8-3.3-7.3-3.3-10.4-.1M233 466.7c-7.2 3.7-10.3 13.9-6.5 21.3 1.9 3.7 9.2 8 13.6 8 7.5 0 13.9-7 13.9-15.1 0-10.9-11.8-18.9-21-14.2M798.2 468c-7.1 4.3-9 12-4.9 20 3.9 7.8 11.6 9.8 19.5 5 8.9-5.5 8.4-19.9-.9-25.4-3.7-2.2-9.7-2-13.7.4M344.5 568.7c-12.5 1.4-12 1.3-9.8 3.5 1.5 1.5 4.6 2.3 12.4 3.3 15.2 2.1 14.6 2.2 10.3-3-3.8-4.7-4.4-4.9-12.9-3.8M249.6 583.5c-5.1 1.8-10.2 6.9-12.2 12.1-2.6 6.7-1.6 16.2 2.1 21.6 6.2 8.6 18.5 11.3 29.2 6.4 7.3-3.5 9.8-8.2 9.8-19.3 0-7.4-.3-8.5-3-12.5-5.7-8.1-16.6-11.7-25.9-8.3m14.3 12.1c4 3.3 5.8 9.2 4.2 13.2-2.2 5.3-5.7 7.7-10.9 7.6-6.1-.1-10.2-4.4-10.2-10.5 0-10.9 9.4-16.7 16.9-10.3M775.6 583.5c-4.4 1.5-10 6.5-12.4 11-1 1.9-1.6 5.6-1.6 10-.1 5.9.3 7.7 2.7 11.7 3.9 6.7 10.3 10.3 18.2 10.3 11.4 0 19.1-6.1 21.5-16.9 2.1-9.6-3.3-20.4-12.4-25.1-5.6-2.8-10.2-3.1-16-1m13.9 11.9c5.7 5.8 4.9 16.6-1.6 19.8-4.1 2-9.4 1.1-12.4-2.2-3.9-4.3-2.8-15.3 1.9-18.5 3.3-2.4 9.3-1.9 12.1.9"/><path d="M330.9 585.7c-.1 1-.2 2.7-.3 3.7-.1 1.4-1.7 2.6-6 4.3-7 2.7-10.4 5.7-14.1 12.4-3.2 5.9-3.5 11.5-1 19 2.1 6.3 8.8 13.6 13.3 14.5l3.2.6V678h-16.8c-9.3 0-21-.3-26-.6l-9-.7-.6-4.1c-.9-6.1-4.9-13.9-9.7-19l-4.2-4.6h-10.6c-14.5-.1-17-.8-24.4-7.3-12.2-10.7-25.9-15.7-42.9-15.7-19.6 0-31.5 4.7-44.4 17.5-12.6 12.4-17.3 23.2-18.1 41.5-.7 13.7.7 20.5 6.7 32.6 12.8 26.2 42.8 37.4 74.5 28 9.5-2.9 25.5-14 30.5-21.2l2.9-4.1 13.3-.5 13.2-.5 3.7-4.3c5.4-6.2 8.9-13.1 9.6-18.7l.5-4.8h52.3l.3 4.1c.3 4.1.3 4.1-4.5 5.9-12.2 4.5-20.2 14.7-22.5 28.8-2.5 14.8 5.6 30.2 19.2 36.6 4.6 2.2 6.9 2.6 14.5 2.6 7.8 0 9.7-.4 14.6-2.8 3.1-1.5 7.6-4.8 9.9-7.3 10-10.9 12.4-24.9 6.3-37.7-4.1-8.6-12-16.6-19.7-19.8l-5.6-2.3v-4.7c0-4.5.2-4.8 3.4-6s6.4-5.4 5.1-6.8c-.4-.3-2.5-1.1-4.8-1.6l-4.2-1.1-.3-19.1-.2-19.1 2.8-1c4.6-1.6 9.9-6.9 12.8-12.8l2.6-5.4 18.2-.1c9.9 0 19.8-.3 21.8-.7l3.8-.7-5.1-5.3-5.1-5.2h-17.2l-17.1-.1-2.5-5.1c-2.8-5.8-6.9-9.4-13.2-11.8-3.3-1.2-4.3-2.1-4.2-3.8 0-1.2-.3-2.2-.7-2.2s-1.5-.7-2.3-1.6c-1.5-1.4-1.6-1.4-1.7.3m7.4 18.5c5.5 2.9 7.6 14.3 3.6 19.9-4.4 6.2-11.6 7.3-17.3 2.8-13.2-10.4-1-30.5 13.7-22.7m-147 34.7c.9.6 3.9 1.3 6.9 1.5 5.5.3 12.7 3.1 16.3 6.3 4.8 4.2 12.1 14.3 15.4 21.3 3.3 6.8 3.6 8.3 3.6 16-.1 17.9-5.1 28.3-18.7 39.3-7.7 6.2-15.8 10-26.7 12.8-10.3 2.6-14.9 2.2-25.6-1.9-14.7-5.8-23-14.2-28.6-29.1-4-10.6-4.6-16.5-2.5-25.6 4.8-20.6 15.7-32.9 35.2-40 5.7-2.1 8.3-2.5 15.1-2.2 4.5.2 8.8.9 9.6 1.6m66 22.5c5.7 6.1 7.7 21 4.8 34.9-1.8 8.5-4.2 10.7-12.1 11.4l-6.5.6 1.9-2.1c1.3-1.5 2.8-2.1 5-1.8 2.7.3 3.2-.1 4.8-3.6 2.3-5.2 2.3-5.8-.7-5.8-1.4 0-2.5-.6-2.5-1.3s-.7-.4-1.5.7c-1.4 1.8-1.5 1.4-1.5-4.5-.1-11-1.8-19.8-5.1-25.6l-3-5.3h7.1c6.2 0 7.4.3 9.3 2.4m79.6 49.7c14 3 22.5 19.2 17.7 33.7-3.1 9.2-14.9 16.3-24.4 14.7-5.8-.9-13.4-5.8-16.7-10.6-2.5-3.5-3-5.4-3.3-11.4-.4-6.2 0-8.2 2.3-13.3 3.3-7.5 5.9-10 12.7-12.3 6.4-2.2 5.6-2.1 11.7-.8"/><path d="M195 641.4c0 .4 4.2 4.8 9.3 9.9 7.3 7.2 10.4 11.2 14.4 18.7 8.2 15.1 8 19.3-1.7 40.8-3.9 8.6-3.3 8.9 2.3 1.2 1.7-2.4 1.7-2.4.6-.2-.6 1.3-.9 2.6-.6 2.8.6.6 6.7-12.8 8.3-18.4 2-6.5 1.7-14.4-.7-23.5-1.8-6.5-3.2-9.2-8-15.2-6.2-7.9-10.6-11.6-16-13.8-5-2.1-7.9-2.9-7.9-2.3"/><path d="M173.2 646c-6.8 4.2-7.6 13-1.7 17.7 3.1 2.5 3.3 3 3 8.2-.3 4.6-.7 5.7-2.8 6.8-1.4.7-3 2.6-3.5 4.3-1 2.7-1.5 3-5.4 3s-4.5-.3-6.5-3.9c-3.9-6.9-10.8-7.8-16.4-2.1-2.5 2.4-2.9 3.6-2.9 8.3 0 5 .3 5.8 3.5 8.6 2 1.7 4.7 3.1 6.1 3.1 3.8 0 8.2-2.7 9.9-6 1.4-2.7 2-3 6.3-2.9 4.1.1 5.1.5 7.9 3.8 2.6 3 3.2 4.6 3.4 9.3.2 5.2 0 5.8-2.9 8.3-2.9 2.4-3.2 3.3-3.2 8 0 4.3.5 5.7 2.7 7.9 3 3 6.2 4.1 9.2 3.1 3.1-.9 8.1-5.5 9.1-8.1 1.4-3.6-.7-9-4.6-12.3-3.5-2.8-3.6-3-2.9-8 .4-3.3 1.2-5.1 2-5.1s2.6-1.6 4.1-3.5c3.7-4.9 7.3-4.8 12.3.5 3 3.2 4.5 4 7.3 4 3.7 0 5.5-1.4 8.2-6.7 4-7.9-.7-15.3-9.6-15.3-2.3 0-4 1-6.8 4-4.4 4.8-9.4 5.6-10.9 1.7-.5-1.2-2.1-3.3-3.5-4.6-2.1-2-2.6-3.4-2.6-7.2 0-3.5.5-5.2 1.8-6.1 7-5.1 6.6-15.5-.8-19.3-3.9-2-5.8-1.9-9.8.5M124.9 593.8c-2.7 2.4-3.3 3.7-3.7 8.5-.4 5.4-.3 5.8 3.1 9.2 3.9 3.9 7.7 4.5 13.1 2 4.1-2 6.6-6.3 6.6-11.5 0-3.4-.6-4.8-3.4-7.6-2.9-2.9-4.1-3.4-8-3.4-3.6 0-5.2.6-7.7 2.8M700.4 593.5c-4.9 2.4-11.4 9.6-12.8 14-.5 1.9-1.6 2-16.3 2.3l-15.8.3-4.7 4.7c-2.7 2.5-4.8 5-4.8 5.5 0 .4 8.9.7 19.9.5l19.8-.3 1.8 5c2.1 5.9 6.6 10.5 12.9 13.1l4.6 1.9v37.3l-4.5 1.1c-4 1-4.5 1.4-4.5 4 0 3.2 2.7 6.1 5.8 6.1 2.6 0 2.9.5 3.3 5.8l.4 4.3-5.3 1.8c-6.3 2.2-11.4 6.1-16.4 12.6-5.2 6.9-7.1 13.8-6.6 23.8.7 12.8 6.5 22.5 17 28.2 4.5 2.5 6.7 3 14.3 3.3 7.4.3 10 0 14.6-1.7 7.5-2.8 13.8-8.5 18-16.3 3.2-5.8 3.4-6.9 3.4-15.3 0-8.1-.3-9.7-3.2-15.6-1.8-3.6-4.8-8.2-6.8-10.2-4.4-4.5-13.1-9.7-16.4-9.7-2.1 0-2.3-.3-1.7-3.1.3-1.7.6-3.7.6-4.3 0-.8 7.4-1.2 25-1.5l25-.3v2.9c0 5.3 3 11.9 8.4 18.5l5.4 6.5 14.3.7 14.4.6 2.8 3.3c8.6 10 13.5 14 22.2 18.2 12 5.7 17.7 7 32 7 9.9 0 13.2-.4 18.5-2.3 15.4-5.3 26.4-14.6 33.3-28 6.3-12.1 8-18.7 8-30.7.1-16.7-4.7-29.4-15.3-40.9-14.2-15.4-27.5-21-49-21-9.8 0-12.6.4-19.3 2.7-11 3.8-18.4 7.8-25.3 13.5-8.4 7-9 7.2-20.7 7.2-14.4 0-15.5.3-20.2 6.3-5.4 6.8-5.6 7.2-7.5 14.6l-1.6 6.6-4.5.6c-2.4.4-13.8.4-25.2.1l-20.9-.5.4-17.9c.3-16.1.5-18 2.1-19 7.2-4 14.7-15.7 14.7-22.9 0-4.9-3-12.9-6.6-17.6-1.4-1.9-5-4.6-7.8-5.9-6.7-3.1-12.8-3.1-19.2.1m15.3 10.5c4.1 2.5 6.6 7.3 6.6 12.8 0 3.5-.6 4.9-3.3 7.7-5.1 5.3-7.9 6.1-13.3 3.7s-7.8-5.7-8.4-11.5c-.5-5.3 2.1-10.4 6.8-12.9 4.3-2.3 7.6-2.3 11.6.2M885 642.1c20.3 10.5 30.8 27.8 29.8 48.9-.3 6.8-.9 8.8-5 17.1-3.2 6.5-6.4 11.2-10 14.8-8.7 8.7-22.2 15.1-32.1 15.1-4.6 0-17.8-3.2-24-5.9-7.4-3.2-17.5-10-21.2-14.3-8.5-10-14.4-26.7-13-36.8 1.6-11.6 7.6-24.2 14.4-30.2 7.4-6.5 19.6-11.8 27.4-11.8 3.9 0 2.4 1.8-2.1 2.6-12.7 2.3-26.1 15.6-31.2 31-1.9 5.5-2.2 8.2-1.8 16.2.6 12.3 3.6 19.5 11 26.4 5.1 4.9 8.8 6.6 5.2 2.5-3.4-3.8-5-6.9-7.9-15.5-4.1-12.4-3.5-19.1 2.8-31.5 4.9-9.7 4.8-9.6 23.8-27.2 3-2.7 6.3-5.3 7.4-5.7s5.6-.6 10-.4c7.3.2 8.8.6 16.5 4.7m-83.9 22.1c-1.8 3.3-3.9 9.9-5.6 17.6l-2.7 12.3 3.4 7 3.4 6.9h-7.3c-8.4 0-8.8-.3-12.2-10.7-1.4-4.2-2.1-8.8-2.1-14.3 0-6.8.5-9 3.2-15.2 1.8-4 3.7-7.6 4.3-8 .5-.4 4.9-.8 9.8-.8h8.7zm-82.8 46.2c7.7 3.2 15.7 16.6 15.7 26.2 0 12.5-10.2 21.8-24 21.8-10.9 0-19.3-6.3-22.1-16.8-3.3-12.1 4.2-27.2 15.3-31.3 4.5-1.6 11.2-1.6 15.1.1"/><path d="M863.3 646.9c-5.5 3.4-6.2 11.5-1.4 16.6 2.2 2.3 3 4.2 3.3 8.3.5 4.9.3 5.4-1.9 6.3-1.3.5-3.2 2.2-4.1 3.9-1.5 2.5-2.3 3-5.8 3-3.6 0-4.3-.4-6.5-3.8-3.1-4.7-8.4-6.4-12.3-3.8-3.8 2.4-5.8 6.1-6 10.6 0 3.2.6 4.6 3.4 7.5s4.1 3.5 7.6 3.5c3.4 0 4.7-.5 6.3-2.6 1.2-1.5 2.1-3.2 2.1-3.8 0-.7 2-1.1 5-1.1 2.8 0 5 .3 5 .7s1.4 2.4 3.2 4.4c2.5 2.8 3.4 4.9 3.8 9 .5 4.7.4 5.4-1.1 5.4-2.3 0-5.9 4.7-5.9 7.7 0 3.6 2.5 8.8 5.1 10.7 5.8 4 15.1.1 16.5-7 .9-4.8 0-7.5-4.1-11.9-3.1-3.2-3.5-4.2-3-6.9.6-2.5 3.2-7.4 6.3-11.6.2-.3 2.5-.5 5.2-.6 4.5-.1 5 .2 6.1 2.8 3.6 8.8 15.6 6.9 18.7-2.9 1.2-3.7 1.1-4.6-.4-7.8-1.9-4.2-5.8-6.5-10.8-6.5-2.7 0-4 .7-6 3.2-1.5 1.8-3.1 3.9-3.7 4.5-.5.7-2.7 1.3-4.7 1.3-3.4 0-3.9-.4-5-3.4-.7-1.8-2.1-4.1-3.2-5.1-3-2.7-2.8-10.1.4-12.6 5.6-4.4 5.8-12.8.5-17.3-3.7-3.1-8.2-3.4-12.6-.7M707.1 732.6c-3.4 4.3-2.6 8.6 2 11 4.8 2.4 8.9-1 8.9-7.5 0-5.8-7.3-8.1-10.9-3.5M905.3 593.8c-4.9 3.8-5.3 12.4-.9 17.5 1.8 2.1 3.2 2.7 6.3 2.7 5.5 0 8.2-3.6 9.8-13.3.5-3.1.2-4.1-1.9-6.2-3.1-3.1-9.9-3.4-13.3-.7M396.1 652.7c-7.3 3.8-11.3 9.4-11.9 16.8-1.1 12.8 8.3 23.9 20.3 23.9 17.3.1 27.1-19.3 17.2-34.1-3.9-5.8-8-8.3-14.9-8.9-4.5-.5-6.1-.1-10.7 2.3m13.7 9.6c2.7 2.2 5.4 9.6 4.7 12.7-.9 3.9-5.8 8-9.7 8-6.5 0-12.2-10.2-9.3-16.4 2.8-5.9 9.8-8 14.3-4.3M629.5 651.8c-11.3 5.5-15.7 18.4-10 29.9 6.3 12.6 23.9 15.3 33.1 5.1 6.6-7.2 7.9-17.9 3.1-26.1-5.5-9.4-17-13.3-26.2-8.9m14.1 11.5c2.9 2.6 3.7 4.2 4.1 8 .5 4.3.3 4.9-3 8.2-4.7 4.7-8.6 4.8-13.3.1-2.8-2.8-3.4-4.2-3.4-7.6 0-5.2 1.3-7.6 5.3-10 4.4-2.7 6.2-2.5 10.3 1.3M589.2 660.3c-.7.8-3.1 2.4-5.3 3.5l-4 2-.2 30.8-.2 30.8-3.1.8c-9.8 2.5-14.5 18.3-8.8 29.7 3.2 6.3 8.2 9.9 15 10.7 15.4 1.9 27.8-11.4 24.5-26.2-1.5-6.3-7.6-13.9-12.1-14.9-1.7-.4-3.1-.7-3.2-.8s-.5-15.5-.8-34.1c-.4-28.2-.7-33.6-1.8-32.3m2.7 77.8c3 2.9 5.4 8.6 4.7 11.5-.9 3.5-5.4 8.2-8.6 8.9-3 .7-7.6-1.1-9.9-3.9-2-2.4-3.1-8.6-2-11.5.6-1.4 2-3.6 3.1-4.9 2.9-3 9.5-3.1 12.7-.1M453 693v33l-3.7 1.5c-7.2 3-11.2 9.1-12 18.5-.6 5.9 1.7 13.2 5.5 17.3 8.4 9.3 26.5 6.8 33.6-4.7 2.5-3.9 3-5.8 3-11 0-8.5-4.1-16.2-10.2-19.1l-4.1-2-.1-29.5v-29.5l-5.4-3.8c-3-2-5.7-3.7-6-3.7s-.6 14.8-.6 33m10.6 45.5c3.5 2.7 5.9 8.3 4.9 11.5-.3 1.1-1.8 3.4-3.2 5-2.1 2.5-3.2 3-7 3-3.6 0-5-.6-7.4-2.9-2.4-2.5-2.9-3.8-2.9-7.9 0-10 8-14.5 15.6-8.7M515 721.9c0 18.1-.3 33.6-.6 34.5s-1.5 1.6-2.5 1.6c-2.8 0-8.6 5.7-10 9.7-1.1 3.4-.8 12.2.5 15.3.4 1.1-1.1 2.8-5.2 5.8-5.7 4.1-15.2 14.8-16.5 18.5-.4 1.1-1.2 1.5-1.8 1.1q-1.05-.6-.6.3c.4.6.1 4.7-.5 9.1-2.8 19.1 4.5 37.4 18.9 47.3 5.1 3.5 17.4 6.9 25.2 6.9 12.3 0 25.1-4.9 32.6-12.4 5.9-6 11.2-17.2 12.5-26.6 1.3-9.2.1-16.1-4-24.5-3.2-6.7-13.6-18.7-18.1-21-2.8-1.5-2.8-1.6-2.2-8 1-10.7-3.1-18.1-12-21.4L528 757v-15.8c0-8.7-.3-24.1-.7-34l-.6-18.2H515zm10.7 46.2c5 2.4 6.5 4.7 6.1 9.2l-.3 3.2-9.4.3c-10.4.2-11.1-.1-11.1-5.5 0-4.6.9-6.4 4.4-7.9 4.2-1.8 5.3-1.7 10.3.7m11.6 26.7c5.3 2.9 11 9.4 14.9 16.7 2.6 4.8 3.7 19.6 1.9 26.2-1.6 5.9-7 13.3-12.3 16.9-5.6 3.8-15.3 5.9-24.2 5.2-14.9-1.2-27.3-13.2-29.1-28.3-1.5-11.5 4.3-27.1 12.3-33.2 10.2-7.8 26.2-9.3 36.5-3.5"/><path d="M512 799.6c-8.2 3.8-12 7.1-14.6 12.8-4.7 10.4-4.1 21.9 1.7 31 3.8 6.1 5.5 5.9 2.1-.2-3.7-6.4-3.6-15.6.1-26.1 3-8.5 5.3-11.3 11.9-14.7 5.4-2.7 11.2-3.1 16.3-.9 4 1.6 13.4 10.1 17.6 15.9 1.6 2.1 2.9 3.6 2.9 3.2 0-1.7-7.1-14.4-9.4-16.9-6.5-7-18.7-8.7-28.6-4.1"/><path d="M516.3 818c-10.3 6.2-7.1 22.5 5 25.5 3.2.8 9.6-2.8 12.3-7.1 1.6-2.4 1.6-2.9-.6-9.2-1.3-3.7-3.2-7.7-4.3-9-2.6-2.8-8-2.9-12.4-.2M406.9 715.3c-4.4 3.4-5 9.2-1.4 13.1 5.1 5.5 13.7 1.9 13.7-5.9 0-6.7-7.4-11-12.3-7.2M257.5 735.5c-8.7 3-12.8 12.8-8.8 21.2 2.3 4.9 6.6 7.3 13 7.3 17.5 0 19.5-25.4 2.3-29.3-1.4-.3-4.3.1-6.5.8M776.5 736.4c-1.7.7-4.3 2.8-5.8 4.5-2.3 2.8-2.7 4.2-2.7 9.3 0 5.7.2 6.3 3.8 9.8 5.1 5.1 9.6 6 15.6 3 13.4-6.4 10.6-25.4-4-27.5-2.3-.3-5.1 0-6.9.9M414.7 789.1c-2.7 1.6-3.8 5.3-2.6 8.9 2 5.5 7.4 6.7 10.8 2.4 5.4-6.9-.9-15.6-8.2-11.3M621.2 790.3c-3 3.2-3 9 0 11.1 3.4 2.4 7.3 2 9.7-1 2.8-3.6 2.6-6-.8-9.5-3.5-3.5-6-3.7-8.9-.6"/></svg>