<?xml version="1.0" standalone="no"?>
<!DOCTYPE svg PUBLIC "-//W3C//DTD SVG 20010904//EN"
 "http://www.w3.org/TR/2001/REC-SVG-20010904/DTD/svg10.dtd">
<svg version="1.0" xmlns="http://www.w3.org/2000/svg"
 width="1024.000000pt" height="1024.000000pt" viewBox="0 0 1024.000000 1024.000000"
 preserveAspectRatio="xMidYMid meet">
<metadata>
Created by potrace 1.16, written by Peter Selinger 2001-2019
</metadata>
<g transform="translate(0.000000,1024.000000) scale(0.100000,-0.100000)"
fill="#000000" stroke="none">
<path d="M5115 9254 c-85 -27 -164 -98 -210 -191 -26 -51 -29 -68 -29 -148 0
-113 24 -179 93 -256 43 -48 97 -82 163 -103 13 -4 17 -26 23 -125 4 -67 11
-121 14 -121 4 0 12 5 18 11 7 7 22 8 46 1 l36 -10 3 115 3 114 52 18 c101 34
179 105 225 207 32 68 32 207 0 277 -29 63 -135 174 -191 199 -59 27 -180 33
-246 12z m212 -110 c66 -34 115 -98 139 -180 34 -119 -37 -258 -154 -300 -56
-20 -156 -17 -200 5 -76 39 -125 121 -130 221 -6 101 10 146 76 210 89 87 163
99 269 44z"/>
<path d="M5161 8954 c-28 -35 -26 -69 4 -99 33 -34 77 -33 104 1 28 35 26 56
-5 93 -33 40 -74 42 -103 5z"/>
<path d="M3196 9135 c-107 -44 -179 -138 -206 -269 -21 -105 12 -222 86 -305
51 -56 101 -91 148 -100 l31 -7 0 -194 0 -193 -42 -14 c-48 -16 -106 -77 -123
-128 -14 -43 -38 -47 -206 -39 l-132 7 -6 40 c-10 60 -51 138 -96 182 l-41 40
-111 3 -110 4 -87 87 c-148 151 -274 204 -481 204 -94 0 -127 -4 -180 -22
-110 -38 -181 -82 -260 -161 -87 -86 -131 -162 -160 -276 -85 -332 100 -663
430 -765 88 -28 240 -32 330 -10 117 29 230 93 327 184 56 53 93 66 183 67 76
0 124 16 160 51 43 44 82 113 95 173 l11 51 165 3 165 2 12 -34 c16 -43 90
-111 139 -127 50 -16 152 -6 207 21 46 22 96 86 96 122 0 13 31 15 240 15 221
0 245 2 310 23 l70 23 0 56 c0 31 3 100 7 153 6 90 7 97 29 102 34 9 92 63
115 108 24 48 27 143 6 185 -64 124 -225 159 -331 71 -52 -43 -69 -82 -70
-158 -1 -83 33 -147 100 -186 l45 -26 -3 -112 -3 -111 -95 -3 c-52 -2 -164 0
-247 3 l-153 7 -18 42 c-27 59 -66 101 -118 126 l-45 22 3 186 3 185 40 13
c191 64 300 268 238 450 -23 69 -53 113 -112 167 -99 88 -235 112 -355 62z
m219 -99 c59 -27 117 -88 136 -142 22 -63 17 -161 -11 -218 -75 -156 -328
-160 -418 -7 -23 40 -27 57 -27 126 0 123 43 197 138 244 56 27 120 26 182 -3z
m770 -646 c21 -22 29 -42 33 -80 4 -46 2 -54 -23 -80 -73 -76 -175 -25 -175
88 0 92 102 137 165 72z m-2279 -65 c27 -8 66 -15 87 -15 91 0 227 -101 297
-219 56 -96 73 -165 68 -275 -8 -152 -62 -258 -179 -353 -86 -70 -166 -108
-273 -129 -113 -22 -184 -12 -302 45 -138 66 -224 170 -269 325 -30 106 -31
130 -6 229 49 190 156 306 348 377 89 33 156 37 229 15z m700 -332 c39 -82 45
-204 14 -297 -31 -93 -43 -105 -117 -112 -44 -5 -63 -3 -63 5 0 6 13 11 29 11
43 0 84 18 78 34 -3 7 -2 18 2 25 4 6 4 39 -1 73 -6 42 -5 65 3 74 9 11 8 14
-5 14 -13 0 -16 -11 -17 -57 0 -42 -3 -52 -9 -38 -6 14 -9 15 -10 5 0 -8 -7
-28 -14 -45 -13 -27 -14 -22 -9 56 6 95 -9 202 -37 267 l-19 42 74 0 74 0 27
-57z m782 -49 c33 -23 52 -67 52 -123 0 -42 -5 -54 -31 -80 -16 -17 -47 -36
-69 -42 -35 -11 -43 -9 -83 14 -95 56 -103 167 -18 224 41 27 115 31 149 7z"/>
<path d="M3280 8853 c-36 -46 -7 -133 45 -133 38 0 75 37 75 74 0 76 -77 114
-120 59z"/>
<path d="M2000 8264 c99 -79 218 -240 257 -349 20 -55 20 -163 1 -200 -8 -17
-41 -72 -72 -124 -31 -51 -55 -95 -53 -98 11 -11 111 117 144 184 34 70 38 84
37 153 -2 140 -43 240 -143 344 -63 65 -108 94 -176 110 l-30 8 35 -28z"/>
<path d="M1743 8251 c-71 -44 -80 -115 -23 -172 23 -23 29 -39 32 -83 3 -49 0
-56 -24 -75 -15 -12 -30 -30 -33 -41 -5 -16 -15 -20 -53 -20 -43 1 -49 4 -74
40 -26 37 -31 40 -77 40 -39 0 -56 -6 -80 -26 -27 -23 -31 -32 -31 -79 0 -38
6 -60 20 -78 23 -29 77 -48 112 -40 28 7 78 52 78 70 0 11 14 13 55 11 34 -2
55 -7 55 -15 0 -6 11 -20 24 -30 16 -13 25 -33 30 -68 4 -28 9 -58 12 -67 4
-13 0 -18 -13 -18 -40 -1 -73 -48 -73 -105 0 -47 13 -71 50 -90 77 -40 170 11
170 95 0 40 -33 100 -55 100 -12 0 -15 13 -15 58 0 51 4 62 28 85 15 14 33 33
40 41 8 10 29 16 52 16 33 0 43 -6 71 -41 40 -50 70 -63 115 -49 50 17 74 53
74 112 0 43 -4 54 -34 84 -52 52 -100 45 -164 -23 -25 -26 -38 -34 -55 -29
-12 3 -29 6 -37 6 -9 0 -24 16 -35 36 -10 19 -27 40 -37 45 -26 14 -26 112 0
131 50 35 57 112 15 157 -37 39 -79 47 -120 22z"/>
<path d="M7010 9151 c-82 -27 -168 -99 -208 -176 -25 -45 -27 -60 -27 -160 0
-98 3 -116 27 -167 35 -76 102 -139 183 -174 l65 -28 0 -127 c0 -69 3 -154 6
-187 l7 -62 -44 -18 c-49 -21 -98 -71 -129 -132 l-20 -40 -239 0 c-209 0 -240
2 -245 16 -3 9 -6 57 -6 108 l0 92 43 31 c29 20 53 49 70 84 36 71 36 129 0
200 -23 45 -37 59 -82 82 -59 29 -102 33 -162 16 -80 -25 -148 -110 -149 -188
0 -82 49 -165 120 -201 46 -23 50 -40 50 -204 l0 -121 58 -18 c46 -14 106 -18
302 -22 l245 -5 31 -52 c46 -76 101 -102 221 -102 87 -1 93 0 130 30 34 27 51
49 88 108 8 13 35 16 170 17 l159 1 11 -54 c13 -65 50 -130 103 -182 39 -37
42 -38 128 -43 143 -7 149 -8 222 -75 129 -117 231 -167 385 -188 121 -17 277
9 388 65 56 29 152 105 194 156 54 65 113 186 130 267 44 207 -20 416 -174
573 -142 144 -317 203 -531 179 -191 -22 -343 -100 -450 -232 l-45 -56 -112
-3 c-94 -4 -116 -7 -140 -25 -53 -39 -91 -115 -108 -216 l-6 -38 -159 0 -158
0 -11 33 c-16 48 -65 102 -115 127 l-44 21 -7 133 c-4 73 -4 161 0 194 7 59 8
61 43 73 153 49 253 202 239 364 -10 126 -92 249 -203 304 -38 20 -68 26 -134
28 -47 1 -96 -1 -110 -6z m172 -110 c107 -45 161 -130 161 -251 0 -56 -5 -85
-20 -115 -45 -86 -131 -132 -229 -122 -238 25 -303 347 -97 477 56 36 119 40
185 11z m-816 -638 c21 -13 40 -49 45 -83 9 -57 -47 -130 -100 -130 -77 0
-140 125 -95 189 34 47 98 58 150 24z m2396 -84 c168 -56 309 -205 353 -374
50 -194 -38 -415 -212 -531 -73 -49 -203 -94 -270 -94 -221 0 -431 126 -526
318 -42 85 -42 86 -41 196 1 132 18 189 90 298 77 115 152 158 316 183 56 8
104 17 106 20 13 13 129 3 184 -16z m-789 -306 c-27 -45 -28 -56 -31 -191 -4
-129 -2 -146 17 -182 12 -23 21 -43 21 -47 0 -3 -26 -3 -57 0 -48 5 -62 11
-80 34 -68 84 -78 269 -21 390 l20 43 80 0 79 0 -28 -47z m-783 -81 c33 -33
55 -99 46 -135 -10 -40 -54 -86 -95 -98 -32 -10 -43 -8 -79 10 -50 25 -72 64
-72 126 0 78 47 124 128 125 35 0 49 -6 72 -28z"/>
<path d="M7070 8860 c-29 -29 -27 -90 3 -118 76 -71 161 35 88 109 -34 34 -63
37 -91 9z"/>
<path d="M8418 8276 c-97 -35 -195 -121 -236 -209 -46 -97 -55 -143 -50 -251
4 -94 8 -111 41 -177 41 -85 55 -102 121 -152 65 -51 76 -46 27 12 -47 56 -89
137 -121 235 -21 64 -22 75 -11 135 27 143 107 264 239 358 84 60 80 81 -10
49z"/>
<path d="M8624 8256 c-41 -18 -64 -52 -64 -94 0 -39 23 -87 45 -95 11 -5 15
-22 15 -66 0 -57 -2 -61 -30 -76 -16 -8 -33 -27 -36 -40 -5 -22 -12 -25 -50
-25 -39 0 -50 5 -83 40 -22 23 -47 40 -60 40 -56 0 -111 -57 -111 -115 0 -56
50 -115 98 -115 36 0 81 28 88 54 4 18 15 26 42 31 21 3 45 8 55 11 11 4 17 0
17 -10 0 -8 14 -31 30 -49 17 -20 30 -47 31 -63 1 -16 4 -40 8 -54 6 -20 2
-28 -20 -42 -37 -23 -56 -88 -38 -130 14 -35 63 -68 99 -68 42 0 88 35 99 76
14 52 3 91 -35 122 -30 24 -34 32 -34 75 0 40 5 53 28 75 16 15 32 35 35 45 5
13 18 17 55 17 42 0 50 -3 60 -24 17 -38 54 -58 103 -54 36 3 47 8 66 37 32
47 32 120 0 156 -33 38 -101 45 -140 15 -16 -13 -33 -33 -37 -46 -8 -21 -16
-24 -60 -24 -34 0 -50 4 -50 13 0 7 -13 28 -30 47 -22 27 -29 45 -30 79 0 38
5 49 35 77 30 27 35 38 35 78 0 80 -69 132 -136 102z"/>
<path d="M5785 9102 c-86 -40 -132 -145 -106 -240 14 -53 52 -109 86 -124 19
-9 23 -20 29 -91 3 -45 6 -209 6 -364 l0 -281 55 -30 55 -30 0 388 0 388 29 7
c64 14 120 104 121 191 0 143 -150 245 -275 186z m111 -97 c24 -10 39 -25 50
-50 17 -43 11 -70 -24 -107 -34 -37 -72 -36 -114 1 -27 24 -33 36 -33 69 0 49
34 90 83 101 1 1 18 -6 38 -14z"/>
<path d="M4525 9096 c-46 -20 -96 -66 -111 -103 -8 -18 -14 -61 -14 -96 0 -52
5 -71 29 -108 16 -27 43 -52 64 -62 l35 -17 4 -369 c1 -203 6 -372 9 -375 3
-3 29 7 58 22 l52 27 -3 358 c-2 291 -1 357 10 357 53 0 123 163 102 239 -28
103 -144 167 -235 127z m104 -112 c26 -21 31 -33 31 -69 0 -36 -5 -48 -31 -69
-35 -30 -65 -33 -95 -8 -52 41 -56 88 -13 137 37 42 66 45 108 9z"/>
<path d="M7623 8505 c-63 -27 -91 -112 -58 -175 25 -48 62 -70 117 -70 43 0
55 5 82 33 63 62 52 154 -23 204 -39 26 -72 28 -118 8z"/>
<path d="M2689 8487 c-43 -29 -59 -60 -59 -116 0 -37 5 -49 39 -82 44 -45 87
-51 148 -22 52 24 75 67 70 127 -9 100 -114 150 -198 93z"/>
<path d="M3647 8240 c-35 -28 -36 -72 -2 -105 45 -46 115 -24 131 41 16 64
-72 108 -129 64z"/>
<path d="M6672 8240 c-33 -31 -38 -67 -15 -98 44 -59 143 -29 143 43 0 64 -81
99 -128 55z"/>
<path d="M5165 8157 c-22 -13 -99 -62 -171 -109 -368 -240 -632 -362 -1038
-478 -112 -32 -595 -143 -677 -155 -25 -4 -51 -10 -58 -14 -10 -7 -12 -169 -8
-767 3 -644 6 -774 20 -857 83 -494 250 -898 524 -1268 80 -108 290 -335 390
-422 139 -121 394 -300 568 -400 174 -100 420 -197 498 -197 120 0 397 119
662 284 729 454 1197 1146 1316 1949 28 195 37 513 32 1142 l-5 520 -21 12
c-12 7 -89 28 -172 47 -82 19 -199 46 -260 60 -558 129 -903 271 -1300 536
-148 98 -220 140 -241 140 -11 0 -37 -11 -59 -23z m88 -124 c18 -9 84 -51 148
-94 341 -228 655 -379 974 -469 136 -38 449 -112 610 -145 44 -8 88 -18 98
-21 18 -6 19 -32 14 -687 -3 -416 -9 -723 -16 -787 -15 -132 -70 -373 -120
-523 -246 -732 -824 -1329 -1589 -1641 -62 -25 -128 -46 -147 -46 -69 0 -313
100 -480 198 -759 442 -1197 1038 -1365 1857 -36 173 -40 268 -41 962 l-2 678
34 3 c248 21 833 182 1106 305 176 79 447 231 598 335 72 50 134 91 138 91 4
1 22 -6 40 -16z"/>
<path d="M5179 7830 c-19 -16 -63 -46 -96 -67 -33 -21 -114 -72 -179 -113
-274 -172 -557 -291 -924 -389 -158 -42 -392 -91 -436 -91 l-35 0 4 -652 c4
-614 5 -660 25 -765 77 -404 207 -730 400 -998 165 -230 346 -413 588 -596
183 -139 444 -283 615 -339 64 -21 69 -22 123 -6 138 40 355 151 546 278 380
254 747 689 907 1076 125 301 176 508 203 822 11 123 14 1170 4 1170 -18 0
-638 154 -694 172 -128 41 -317 121 -464 195 -153 77 -190 99 -359 212 -120
81 -180 119 -187 120 -3 0 -21 -13 -41 -29z m35 -343 c8 -197 -16 -160 199
-319 189 -142 331 -229 469 -288 175 -75 448 -149 618 -167 48 -5 60 -9 55
-21 -3 -8 -10 -98 -15 -201 -5 -102 -11 -204 -14 -226 -3 -22 -10 -80 -16
-130 -25 -199 -141 -565 -255 -802 -121 -251 -220 -391 -418 -591 -141 -143
-258 -232 -417 -318 -203 -109 -168 -107 -336 -20 -178 92 -374 236 -527 388
-59 59 -107 108 -106 110 6 7 -35 60 -54 69 -14 8 -18 8 -13 0 12 -18 -9 -12
-32 9 -12 11 -28 20 -37 20 -8 0 -15 4 -15 10 0 5 -11 20 -25 34 -14 14 -25
31 -25 39 0 7 -11 20 -25 27 -18 9 -25 22 -25 42 0 29 -30 68 -52 68 -9 0 -8
4 2 10 13 9 13 10 0 10 -13 0 -13 1 0 10 12 8 9 12 -17 22 -30 11 -33 16 -33
55 0 23 -5 45 -10 48 -6 4 -8 11 -5 16 3 5 -2 6 -11 2 -12 -4 -15 -3 -10 5 4
7 1 12 -8 12 -9 0 -16 7 -16 15 0 8 -9 15 -20 15 -17 0 -20 7 -20 40 0 33 -3
40 -20 40 -18 0 -20 7 -20 60 0 53 -2 60 -20 60 -13 0 -20 7 -20 20 0 13 -7
20 -20 20 -17 0 -20 7 -20 40 0 33 -3 40 -20 40 -13 0 -20 -7 -20 -20 0 -13
-7 -20 -20 -20 -19 0 -20 7 -20 140 0 133 -1 140 -20 140 -13 0 -20 7 -20 20
0 13 -7 20 -20 20 -13 0 -20 7 -20 20 0 13 -7 20 -19 20 -16 0 -21 8 -23 43
l-4 42 -9 -55 -10 -55 -6 85 c-4 47 -7 268 -8 493 -1 406 -1 407 19 407 12 0
19 4 16 9 -4 5 5 8 19 6 49 -5 261 27 340 52 28 8 75 24 105 35 30 11 75 26
100 33 42 13 214 74 308 108 60 23 286 143 350 186 70 47 69 47 127 72 28 12
54 21 59 20 5 -1 12 2 15 7 3 5 24 18 46 28 22 11 44 29 50 41 5 12 10 21 11
20 1 -1 5 -78 8 -170z m-1456 -1967 c10 0 13 -3 7 -8 -16 -11 -12 -35 9 -56
12 -12 16 -27 13 -45 -4 -20 -2 -28 9 -28 8 0 14 4 14 9 0 4 7 8 15 8 18 0 20
20 3 20 -9 1 -8 4 2 13 10 8 14 25 12 50 l-3 37 40 0 41 0 0 -40 c0 -33 -3
-40 -20 -40 -18 0 -20 -7 -20 -80 0 -47 4 -80 10 -80 6 0 10 18 10 40 0 22 5
40 10 40 6 0 10 -32 10 -75 0 -67 -2 -75 -19 -75 -16 0 -35 -31 -32 -52 1 -5
-1 -8 -4 -8 -13 0 -118 295 -128 360 -3 19 -3 29 0 23 2 -7 12 -13 21 -13z"/>
<path d="M5179 6971 c-160 -134 -376 -270 -537 -337 -123 -52 -360 -130 -425
-139 -26 -4 -50 -11 -53 -16 -6 -11 13 -272 27 -354 87 -523 293 -938 621
-1250 147 -140 355 -263 422 -251 38 7 197 101 293 173 154 115 357 363 464
566 162 309 283 739 301 1071 l2 48 -94 24 c-145 37 -304 91 -425 145 -172 77
-209 101 -536 346 -12 9 -23 5 -60 -26z m44 -2173 l-8 -56 -91 52 c-367 211
-631 613 -774 1174 -18 74 -38 201 -54 363 l-6 56 51 6 c63 8 258 73 373 127
102 46 221 116 391 228 l120 79 3 -986 c1 -542 -1 -1011 -5 -1043z"/>
<path d="M2755 7244 c-43 -22 -64 -44 -86 -86 -23 -45 -25 -137 -5 -176 60
-114 239 -138 319 -42 59 69 60 165 3 243 -50 69 -161 98 -231 61z m143 -124
c29 -43 28 -71 -4 -109 -37 -44 -87 -44 -114 2 -20 32 -26 81 -14 112 9 23 63
45 89 35 11 -4 30 -22 43 -40z"/>
<path d="M7525 7246 c-37 -17 -80 -62 -94 -99 -25 -66 -2 -177 45 -219 73 -65
203 -61 266 9 35 39 61 114 54 160 -7 57 -58 131 -102 149 -42 18 -129 17
-169 0z m129 -107 c20 -16 26 -29 26 -60 0 -52 -13 -74 -50 -88 -57 -19 -110
20 -110 81 0 75 75 113 134 67z"/>
<path d="M8013 7101 c-63 -29 -96 -86 -97 -164 0 -74 18 -114 71 -154 31 -24
46 -28 97 -28 79 0 122 25 158 90 35 63 35 107 2 173 -46 92 -137 125 -231 83z
m134 -107 c21 -21 24 -32 20 -61 -13 -77 -85 -109 -126 -57 -66 84 31 193 106
118z"/>
<path d="M2265 7094 c-68 -35 -95 -79 -95 -154 0 -91 46 -156 129 -181 98 -29
207 42 218 144 9 77 -32 159 -98 192 -37 20 -116 19 -154 -1z m129 -105 c33
-39 34 -82 1 -114 -38 -39 -86 -32 -110 16 -20 37 -19 58 5 97 27 44 68 44
104 1z"/>
<path d="M1470 6724 c-111 -22 -262 -97 -328 -164 -66 -67 -98 -114 -134 -202
-26 -62 -31 -90 -35 -183 -6 -132 6 -200 52 -293 67 -132 184 -239 323 -296
73 -29 85 -31 212 -31 112 0 147 4 206 22 69 22 201 100 237 140 16 19 26 20
136 15 165 -7 208 1 251 46 l35 37 235 -8 c129 -5 281 -5 338 -2 l102 7 0 52
c0 29 -3 81 -6 115 l-7 61 -298 0 -299 0 1 98 c0 86 -16 205 -36 255 -7 16 12
17 319 17 l326 0 0 60 0 60 -302 0 c-231 -1 -312 -4 -342 -15 l-38 -13 -39 40
-38 40 -169 -7 -168 -7 -68 47 c-37 27 -102 61 -144 78 -66 25 -93 30 -187 33
-60 1 -121 0 -135 -2z m321 -140 c299 -142 365 -570 121 -784 -100 -89 -292
-151 -400 -130 -180 34 -350 163 -397 303 -26 79 -31 202 -10 287 55 223 293
378 486 315 131 -42 266 -163 314 -281 39 -98 43 -168 15 -246 -35 -99 -78
-167 -154 -245 -38 -40 -66 -73 -63 -73 26 0 120 55 159 93 49 47 110 135 129
184 36 95 29 242 -18 340 -32 68 -143 183 -210 217 -29 14 -90 33 -135 41
l-83 14 90 -2 c78 -2 99 -6 156 -33z m523 -146 c49 -135 58 -189 53 -307 -5
-123 -22 -205 -38 -180 -5 8 -4 15 1 17 18 6 11 57 -10 75 -11 9 -35 17 -54
17 -30 0 -34 4 -40 31 -3 17 -6 50 -6 73 0 22 -7 54 -15 70 -8 15 -15 33 -15
40 0 31 -24 89 -60 145 l-40 61 104 0 104 0 16 -42z"/>
<path d="M1494 6486 c-28 -28 -34 -41 -34 -77 0 -34 6 -49 30 -74 18 -18 33
-47 37 -68 5 -31 1 -41 -23 -67 -25 -26 -36 -30 -80 -30 -45 0 -52 3 -62 25
-16 35 -71 59 -115 51 -49 -9 -77 -47 -77 -101 0 -37 5 -48 35 -74 50 -43 104
-43 137 0 23 28 28 30 83 27 49 -3 61 -7 76 -28 24 -34 36 -130 17 -130 -29 0
-58 -44 -58 -89 0 -36 6 -49 34 -77 19 -19 44 -34 55 -34 54 0 111 57 111 110
0 28 -25 76 -50 93 -18 13 -19 19 -10 67 11 60 29 85 67 95 20 5 32 0 52 -19
37 -35 61 -33 104 12 63 64 44 128 -40 139 -35 5 -42 2 -66 -27 -15 -17 -27
-36 -27 -41 0 -20 -30 -7 -59 26 -41 48 -44 88 -9 135 45 62 30 143 -33 176
-41 21 -57 18 -95 -20z"/>
<path d="M8750 6715 c-84 -21 -121 -39 -199 -99 -66 -50 -75 -54 -104 -45 -18
5 -105 9 -195 9 -162 0 -163 0 -189 -26 l-26 -26 -341 -2 -341 -1 -3 -56 c-3
-54 -2 -57 24 -63 15 -4 158 -4 319 0 183 4 294 3 298 -3 3 -5 1 -36 -4 -69
-5 -32 -12 -115 -16 -184 l-5 -125 -97 6 c-135 10 -504 10 -517 1 -6 -4 -14
-56 -17 -121 l-6 -114 340 7 c186 3 345 9 353 12 10 4 24 -9 40 -34 23 -37 30
-41 82 -48 32 -4 116 -4 188 -1 l130 5 50 -44 c62 -54 162 -107 236 -125 88
-22 241 -17 335 9 109 31 168 66 246 142 77 75 130 171 160 288 48 190 -5 381
-149 534 -124 131 -232 178 -417 184 -82 2 -138 -1 -175 -11z m144 -93 c3 -5
-21 -14 -53 -20 -102 -21 -235 -130 -289 -237 -55 -110 -67 -244 -32 -357 23
-76 101 -185 159 -224 39 -25 140 -68 147 -61 2 2 -24 30 -57 63 -107 103
-119 118 -152 184 -30 60 -32 72 -32 165 0 97 1 104 39 180 50 103 135 188
236 239 82 41 126 45 211 20 150 -44 280 -190 310 -349 34 -181 -55 -384 -207
-475 -130 -78 -254 -98 -392 -61 -95 25 -146 56 -224 139 -78 83 -104 133
-120 235 -45 292 149 549 429 566 12 0 24 -3 27 -7z m-509 -153 c7 -7 -31 -75
-57 -101 -9 -9 -20 -40 -24 -68 -5 -39 -12 -54 -28 -60 -12 -5 -15 -9 -8 -9 9
-1 12 -27 12 -96 l0 -95 -49 0 c-27 0 -53 -6 -59 -12 -12 -16 -21 -89 -10 -82
4 3 9 0 9 -5 1 -6 2 -16 3 -23 1 -15 26 -23 26 -8 0 6 4 8 10 5 5 -3 21 2 36
11 26 18 26 17 59 -22 l33 -39 -30 -8 c-16 -4 -53 -7 -81 -5 -46 3 -54 7 -74
37 -65 96 -77 300 -28 476 15 55 29 104 32 108 6 10 218 5 228 -4z"/>
<path d="M8899 6487 c-30 -20 -34 -28 -37 -74 -3 -47 -1 -53 28 -73 29 -21 31
-25 28 -78 -3 -52 -6 -57 -36 -75 l-34 -20 -21 26 c-12 15 -34 31 -49 36 -49
18 -128 -19 -128 -61 0 -48 55 -108 100 -108 12 0 33 11 48 25 15 14 39 25 55
25 34 0 52 -36 59 -117 5 -48 3 -52 -19 -58 -47 -11 -58 -96 -18 -143 53 -63
126 -57 159 13 23 48 15 93 -24 130 -33 32 -37 59 -16 109 21 51 51 76 89 76
27 0 40 -8 66 -40 26 -33 38 -40 67 -40 52 0 104 53 104 107 0 48 -42 94 -86
95 -35 1 -89 -25 -97 -47 -5 -11 -21 -15 -56 -15 -42 0 -53 4 -70 26 -31 39
-27 89 9 131 47 53 34 134 -25 161 -37 17 -58 15 -96 -11z"/>
<path d="M2772 5631 c-91 -58 -104 -184 -28 -269 44 -49 48 -66 40 -138 -5
-56 -9 -63 -31 -69 -35 -8 -118 -94 -134 -138 l-13 -37 -112 0 -112 0 -6 45
c-9 57 -61 135 -106 158 -29 16 -51 18 -131 13 l-96 -5 -53 45 c-197 168 -469
163 -644 -13 -172 -174 -166 -453 13 -647 133 -143 386 -168 560 -56 32 21 78
60 102 89 l44 51 107 0 106 0 41 47 c25 28 47 66 56 98 l15 51 110 -1 110 0
30 -52 c94 -164 334 -148 407 26 l15 34 168 -6 169 -6 -19 32 c-10 18 -23 49
-30 70 l-12 39 -128 -4 -128 -3 -26 46 c-33 59 -81 106 -123 121 l-33 12 0 73
c0 60 3 73 16 73 52 0 113 90 114 165 0 50 -35 122 -73 149 -41 30 -142 34
-185 7z m132 -102 c31 -37 33 -77 5 -113 -26 -33 -59 -33 -89 -1 -34 37 -33
90 4 121 36 31 49 30 80 -7z m-1147 -274 c56 -17 135 -58 153 -80 7 -8 18 -15
25 -15 38 0 105 -157 105 -248 0 -78 -21 -136 -75 -205 -116 -147 -276 -196
-422 -128 -97 46 -147 91 -184 167 -81 163 -28 365 118 455 53 33 152 68 194
68 19 1 58 -6 86 -14z m483 -185 c11 -22 24 -66 28 -97 8 -65 0 -169 -16 -185
-5 -5 -38 -12 -72 -15 l-62 -6 22 43 c19 36 21 54 17 124 -3 54 -12 97 -25
124 -22 46 -20 49 50 51 34 1 39 -3 58 -39z m647 -15 c37 -26 63 -79 63 -130
0 -40 -5 -52 -34 -81 -29 -29 -41 -34 -80 -34 -39 0 -51 5 -86 38 -36 35 -40
44 -40 88 0 56 17 86 64 115 37 23 84 24 113 4z"/>
<path d="M1609 5181 c-36 -36 -37 -64 -4 -97 27 -27 34 -79 15 -115 -16 -29
-77 -26 -102 6 -28 36 -89 35 -117 -1 -31 -39 -27 -77 10 -108 40 -34 83 -34
105 -1 20 30 63 34 87 7 9 -10 20 -38 23 -63 5 -39 3 -47 -20 -68 -36 -34 -36
-91 0 -120 76 -60 174 26 115 101 -29 37 -37 109 -14 135 31 36 66 37 102 2
37 -35 60 -33 103 10 41 40 45 75 14 105 -35 36 -77 34 -109 -4 -19 -23 -34
-30 -60 -30 -66 0 -88 64 -42 124 14 18 25 45 25 60 0 33 -49 86 -80 86 -12 0
-35 -13 -51 -29z"/>
<path d="M7510 5632 c-41 -23 -70 -67 -81 -126 -12 -63 6 -114 57 -163 44 -42
44 -43 44 -111 0 -68 0 -68 -34 -84 -52 -25 -102 -74 -126 -123 l-22 -45 -118
0 -119 0 -27 -57 c-16 -32 -30 -62 -32 -67 -3 -6 56 -7 146 -3 l151 7 35 -54
c51 -80 109 -111 206 -111 83 0 117 14 169 66 18 17 38 46 46 65 l14 34 115 0
c129 0 114 8 131 -73 7 -35 62 -107 91 -117 14 -6 65 -10 114 -10 l88 0 64
-63 c45 -45 86 -75 142 -102 71 -34 90 -39 177 -43 161 -8 277 41 372 155 180
216 146 512 -78 669 -77 54 -139 75 -245 81 -143 9 -262 -32 -348 -119 l-47
-48 -127 0 -127 0 -29 -42 c-29 -42 -62 -124 -62 -153 0 -12 -20 -15 -114 -15
l-113 0 -17 44 c-19 49 -73 108 -116 126 -26 11 -29 17 -35 80 -8 82 -2 106
30 114 46 12 75 103 55 176 -6 24 -28 60 -49 83 -34 35 -44 41 -92 44 -40 3
-63 -1 -89 -15z m1393 -394 c121 -57 217 -183 225 -300 9 -116 -61 -258 -155
-319 -64 -40 -145 -69 -196 -69 -71 -1 -201 57 -268 118 -79 72 -94 114 -94
257 0 100 3 115 27 161 81 154 299 226 461 152z m-575 -143 c1 -1 -5 -15 -13
-32 -23 -45 -37 -176 -25 -229 6 -25 8 -50 5 -55 -8 -11 -85 -12 -103 0 -14 9
-41 115 -42 163 0 49 22 130 41 149 16 16 28 18 77 13 31 -4 58 -8 60 -9z
m-662 -56 c31 -29 58 -101 50 -133 -10 -39 -54 -85 -96 -97 -32 -10 -44 -9
-76 7 -54 27 -79 66 -79 124 0 52 16 78 70 112 38 24 98 18 131 -13z"/>
<path d="M8725 5185 c-35 -34 -34 -88 0 -111 18 -12 25 -25 25 -49 0 -50 -8
-63 -47 -76 -33 -11 -36 -10 -68 25 -40 44 -71 46 -115 10 -26 -22 -31 -33
-28 -63 2 -27 11 -40 37 -58 44 -30 51 -29 97 8 29 23 44 29 64 24 41 -11 50
-24 50 -81 0 -40 -6 -62 -25 -90 -32 -47 -32 -77 1 -103 33 -26 81 -27 113 -2
21 16 23 24 18 60 -3 24 -13 51 -22 61 -13 15 -15 29 -10 74 8 61 15 70 62 81
29 6 36 3 58 -24 14 -16 34 -33 44 -36 75 -24 134 114 68 160 -34 23 -60 18
-97 -20 -27 -28 -42 -35 -71 -35 -41 0 -54 11 -64 57 -5 26 -1 39 19 66 36 47
34 88 -5 121 -38 33 -73 33 -104 1z"/>
<path d="M2330 5573 c-72 -37 -103 -139 -65 -213 19 -37 92 -80 136 -80 75 0
139 70 139 151 0 109 -118 189 -210 142z"/>
<path d="M7982 5560 c-71 -43 -90 -120 -49 -200 39 -78 116 -98 195 -50 89 55
84 199 -9 254 -37 22 -97 20 -137 -4z"/>
<path d="M3445 4553 c-125 -14 -120 -13 -98 -35 15 -15 46 -23 124 -33 152
-21 146 -22 103 30 -38 47 -44 49 -129 38z"/>
<path d="M2496 4405 c-51 -18 -102 -69 -122 -121 -26 -67 -16 -162 21 -216 62
-86 185 -113 292 -64 73 35 98 82 98 193 0 74 -3 85 -30 125 -57 81 -166 117
-259 83z m143 -121 c40 -33 58 -92 42 -132 -22 -53 -57 -77 -109 -76 -61 1
-102 44 -102 105 0 109 94 167 169 103z"/>
<path d="M7756 4405 c-44 -15 -100 -65 -124 -110 -10 -19 -16 -56 -16 -100 -1
-59 3 -77 27 -117 39 -67 103 -103 182 -103 114 0 191 61 215 169 21 96 -33
204 -124 251 -56 28 -102 31 -160 10z m139 -119 c57 -58 49 -166 -16 -198 -41
-20 -94 -11 -124 22 -39 43 -28 153 19 185 33 24 93 19 121 -9z"/>
<path d="M3309 4383 c-1 -10 -2 -27 -3 -37 -1 -14 -17 -26 -60 -43 -70 -27
-104 -57 -141 -124 -32 -59 -35 -115 -10 -190 21 -63 88 -136 133 -145 l32 -6
0 -189 0 -189 -168 0 c-93 0 -210 3 -260 6 l-90 7 -6 41 c-9 61 -49 139 -97
190 l-42 46 -106 0 c-145 1 -170 8 -244 73 -122 107 -259 157 -429 157 -196 0
-315 -47 -444 -175 -126 -124 -173 -232 -181 -415 -7 -137 7 -205 67 -326 128
-262 428 -374 745 -280 95 29 255 140 305 212 l29 41 133 5 132 5 37 43 c54
62 89 131 96 187 l5 48 262 0 261 0 3 -41 c3 -41 3 -41 -45 -59 -122 -45 -202
-147 -225 -288 -25 -148 56 -302 192 -366 46 -22 69 -26 145 -26 78 0 97 4
146 28 31 15 76 48 99 73 100 109 124 249 63 377 -41 86 -120 166 -197 198
l-56 23 0 47 c0 45 2 48 34 60 32 12 64 54 51 68 -4 3 -25 11 -48 16 l-42 11
-3 191 -2 191 28 10 c46 16 99 69 128 128 l26 54 182 1 c99 0 198 3 218 7 l38
7 -51 53 -51 52 -172 0 -171 1 -25 51 c-28 58 -69 94 -132 118 -33 12 -43 21
-42 38 0 12 -3 22 -7 22 -4 0 -15 7 -23 16 -15 14 -16 14 -17 -3z m74 -185
c55 -29 76 -143 36 -199 -44 -62 -116 -73 -173 -28 -132 104 -10 305 137 227z
m-1470 -347 c9 -6 39 -13 69 -15 55 -3 127 -31 163 -63 48 -42 121 -143 154
-213 33 -68 36 -83 36 -160 -1 -179 -51 -283 -187 -393 -77 -62 -158 -100
-267 -128 -103 -26 -149 -22 -256 19 -147 58 -230 142 -286 291 -40 106 -46
165 -25 256 48 206 157 329 352 400 57 21 83 25 151 22 45 -2 88 -9 96 -16z
m660 -225 c57 -61 77 -210 48 -349 -18 -85 -42 -107 -121 -114 l-65 -6 19 21
c13 15 28 21 50 18 27 -3 32 1 48 36 23 52 23 58 -7 58 -14 0 -25 6 -25 13 0
7 -7 4 -15 -7 -14 -18 -15 -14 -15 45 -1 110 -18 198 -51 256 l-30 53 71 0
c62 0 74 -3 93 -24z m796 -497 c140 -30 225 -192 177 -337 -31 -92 -149 -163
-244 -147 -58 9 -134 58 -167 106 -25 35 -30 54 -33 114 -4 62 0 82 23 133 33
75 59 100 127 123 64 22 56 21 117 8z"/>
<path d="M1950 3826 c0 -4 42 -48 93 -99 73 -72 104 -112 144 -187 82 -151 80
-193 -17 -408 -39 -86 -33 -89 23 -12 17 24 17 24 6 2 -6 -13 -9 -26 -6 -28 6
-6 67 128 83 184 20 65 17 144 -7 235 -18 65 -32 92 -80 152 -62 79 -106 116
-160 138 -50 21 -79 29 -79 23z"/>
<path d="M1732 3780 c-68 -42 -76 -130 -17 -177 31 -25 33 -30 30 -82 -3 -46
-7 -57 -28 -68 -14 -7 -30 -26 -35 -43 -10 -27 -15 -30 -54 -30 -39 0 -45 3
-65 39 -39 69 -108 78 -164 21 -25 -24 -29 -36 -29 -83 0 -50 3 -58 35 -86 20
-17 47 -31 61 -31 38 0 82 27 99 60 14 27 20 30 63 29 41 -1 51 -5 79 -38 26
-30 32 -46 34 -93 2 -52 0 -58 -29 -83 -29 -24 -32 -33 -32 -80 0 -43 5 -57
27 -79 30 -30 62 -41 92 -31 31 9 81 55 91 81 14 36 -7 90 -46 123 -35 28 -36
30 -29 80 4 33 12 51 20 51 8 0 26 16 41 35 37 49 73 48 123 -5 30 -32 45 -40
73 -40 37 0 55 14 82 67 40 79 -7 153 -96 153 -23 0 -40 -10 -68 -40 -44 -48
-94 -56 -109 -17 -5 12 -21 33 -35 46 -21 20 -26 34 -26 72 0 35 5 52 18 61
70 51 66 155 -8 193 -39 20 -58 19 -98 -5z"/>
<path d="M1249 4302 c-27 -24 -33 -37 -37 -85 -4 -54 -3 -58 31 -92 39 -39 77
-45 131 -20 41 20 66 63 66 115 0 34 -6 48 -34 76 -29 29 -41 34 -80 34 -36 0
-52 -6 -77 -28z"/>
<path d="M7004 4305 c-49 -24 -114 -96 -128 -140 -5 -19 -16 -20 -163 -23
l-158 -3 -47 -47 c-27 -25 -48 -50 -48 -55 0 -4 89 -7 199 -5 l198 3 18 -50
c21 -59 66 -105 129 -131 l46 -19 0 -186 0 -187 -45 -11 c-40 -10 -45 -14 -45
-40 0 -32 27 -61 58 -61 26 0 29 -5 33 -58 l4 -43 -53 -18 c-63 -22 -114 -61
-164 -126 -52 -69 -71 -138 -66 -238 7 -128 65 -225 170 -282 45 -25 67 -30
143 -33 74 -3 100 0 146 17 75 28 138 85 180 163 32 58 34 69 34 153 0 81 -3
97 -32 156 -18 36 -48 82 -68 102 -44 45 -131 97 -164 97 -21 0 -23 3 -17 31
3 17 6 37 6 43 0 8 74 12 250 15 l250 3 0 -29 c0 -53 30 -119 84 -185 l54 -65
143 -7 144 -6 28 -33 c86 -100 135 -140 222 -182 120 -57 177 -70 320 -70 99
0 132 4 185 23 154 53 264 146 333 280 63 121 80 187 80 307 1 167 -47 294
-153 409 -142 154 -275 210 -490 210 -98 0 -126 -4 -193 -27 -110 -38 -184
-78 -253 -135 -84 -70 -90 -72 -207 -72 -144 0 -155 -3 -202 -63 -54 -68 -56
-72 -75 -146 l-16 -66 -45 -6 c-24 -4 -138 -4 -252 -1 l-209 5 4 179 c3 161 5
180 21 190 72 40 147 157 147 229 0 49 -30 129 -66 176 -14 19 -50 46 -78 59
-67 31 -128 31 -192 -1z m153 -105 c41 -25 66 -73 66 -128 0 -35 -6 -49 -33
-77 -51 -53 -79 -61 -133 -37 -54 24 -78 57 -84 115 -5 53 21 104 68 129 43
23 76 23 116 -2z m1693 -381 c203 -105 308 -278 298 -489 -3 -68 -9 -88 -50
-171 -32 -65 -64 -112 -100 -148 -87 -87 -222 -151 -321 -151 -46 0 -178 32
-240 59 -74 32 -175 100 -212 143 -85 100 -144 267 -130 368 16 116 76 242
144 302 74 65 196 118 274 118 39 0 24 -18 -21 -26 -127 -23 -261 -156 -312
-310 -19 -55 -22 -82 -18 -162 6 -123 36 -195 110 -264 51 -49 88 -66 52 -25
-34 38 -50 69 -79 155 -41 124 -35 191 28 315 49 97 48 96 238 272 30 27 63
53 74 57 11 4 56 6 100 4 73 -2 88 -6 165 -47z m-839 -221 c-18 -33 -39 -99
-56 -176 l-27 -123 34 -70 34 -69 -73 0 c-84 0 -88 3 -122 107 -14 42 -21 88
-21 143 0 68 5 90 32 152 18 40 37 76 43 80 5 4 49 8 98 8 l87 0 -29 -52z
m-828 -462 c77 -32 157 -166 157 -262 0 -125 -102 -218 -240 -218 -109 0 -193
63 -221 168 -33 121 42 272 153 313 45 16 112 16 151 -1z"/>
<path d="M8633 3771 c-55 -34 -62 -115 -14 -166 22 -23 30 -42 33 -83 5 -49 3
-54 -19 -63 -13 -5 -32 -22 -41 -39 -15 -25 -23 -30 -58 -30 -36 0 -43 4 -65
38 -31 47 -84 64 -123 38 -38 -24 -58 -61 -60 -106 0 -32 6 -46 34 -75 28 -29
41 -35 76 -35 34 0 47 5 63 26 12 15 21 32 21 38 0 7 20 11 50 11 28 0 50 -3
50 -7 0 -4 14 -24 32 -44 25 -28 34 -49 38 -90 5 -47 4 -54 -11 -54 -23 0 -59
-47 -59 -77 0 -36 25 -88 51 -107 58 -40 151 -1 165 70 9 48 0 75 -41 119 -31
32 -35 42 -30 69 6 25 32 74 63 116 2 3 25 5 52 6 45 1 50 -2 61 -28 36 -88
156 -69 187 29 12 37 11 46 -4 78 -19 42 -58 65 -108 65 -27 0 -40 -7 -60 -32
-15 -18 -31 -39 -37 -45 -5 -7 -27 -13 -47 -13 -34 0 -39 4 -50 34 -7 18 -21
41 -32 51 -30 27 -28 101 4 126 56 44 58 128 5 173 -37 31 -82 34 -126 7z"/>
<path d="M7071 2914 c-34 -43 -26 -86 20 -110 48 -24 89 10 89 75 0 58 -73 81
-109 35z"/>
<path d="M9053 4302 c-49 -38 -53 -124 -9 -175 18 -21 32 -27 63 -27 55 0 82
36 98 133 5 31 2 41 -19 62 -31 31 -99 34 -133 7z"/>
<path d="M3961 3713 c-73 -38 -113 -94 -119 -168 -11 -128 83 -239 203 -239
173 -1 271 193 172 341 -39 58 -80 83 -149 89 -45 5 -61 1 -107 -23z m137 -96
c27 -22 54 -96 47 -127 -9 -39 -58 -80 -97 -80 -65 0 -122 102 -93 164 28 59
98 80 143 43z"/>
<path d="M6295 3722 c-113 -55 -157 -184 -100 -299 63 -126 239 -153 331 -51
66 72 79 179 31 261 -55 94 -170 133 -262 89z m141 -115 c29 -26 37 -42 41
-80 5 -43 3 -49 -30 -82 -47 -47 -86 -48 -133 -1 -28 28 -34 42 -34 76 0 52
13 76 53 100 44 27 62 25 103 -13z"/>
<path d="M5892 3637 c-7 -8 -31 -24 -53 -35 l-40 -20 -2 -308 -2 -308 -31 -8
c-98 -25 -145 -183 -88 -297 32 -63 82 -99 150 -107 154 -19 278 114 245 262
-15 63 -76 139 -121 149 -17 4 -31 7 -32 8 -1 1 -5 155 -8 341 -4 282 -7 336
-18 323z m27 -778 c30 -29 54 -86 47 -115 -9 -35 -54 -82 -86 -89 -30 -7 -76
11 -99 39 -20 24 -31 86 -20 115 6 14 20 36 31 49 29 30 95 31 127 1z"/>
<path d="M4530 3310 l0 -330 -37 -15 c-72 -30 -112 -91 -120 -185 -6 -59 17
-132 55 -173 84 -93 265 -68 336 47 25 39 30 58 30 110 0 85 -41 162 -102 191
l-41 20 -1 295 0 295 -54 38 c-30 20 -57 37 -60 37 -3 0 -6 -148 -6 -330z
m106 -455 c35 -27 59 -83 49 -115 -3 -11 -18 -34 -32 -50 -21 -25 -32 -30 -70
-30 -36 0 -50 6 -74 29 -24 25 -29 38 -29 79 0 100 80 145 156 87z"/>
<path d="M5150 3021 c0 -181 -3 -336 -6 -345 -3 -9 -15 -16 -25 -16 -28 0 -86
-57 -100 -97 -11 -34 -8 -122 5 -153 4 -11 -11 -28 -52 -58 -57 -41 -152 -148
-165 -185 -4 -11 -12 -15 -18 -11 -7 4 -9 3 -6 -3 4 -6 1 -47 -5 -91 -28 -191
45 -374 189 -473 51 -35 174 -69 252 -69 123 0 251 49 326 124 59 60 112 172
125 266 13 92 1 161 -40 245 -32 67 -136 187 -181 210 -28 15 -28 16 -22 80
10 107 -31 181 -120 214 l-27 11 0 158 c0 87 -3 241 -7 340 l-6 182 -59 0 -58
0 0 -329z m107 -462 c50 -24 65 -47 61 -92 l-3 -32 -94 -3 c-104 -2 -111 1
-111 55 0 46 9 64 44 79 42 18 53 17 103 -7z m116 -267 c53 -29 110 -94 149
-167 26 -48 37 -196 19 -262 -16 -59 -70 -133 -123 -169 -56 -38 -153 -59
-242 -52 -149 12 -273 132 -291 283 -15 115 43 271 123 332 102 78 262 93 365
35z"/>
<path d="M5120 2244 c-82 -38 -120 -71 -146 -128 -47 -104 -41 -219 17 -310
38 -61 55 -59 21 2 -37 64 -36 156 1 261 30 85 53 113 119 147 54 27 112 31
163 9 40 -16 134 -101 176 -159 16 -21 29 -36 29 -32 0 17 -71 144 -94 169
-65 70 -187 87 -286 41z"/>
<path d="M5163 2060 c-103 -62 -71 -225 50 -255 32 -8 96 28 123 71 16 24 16
29 -6 92 -13 37 -32 77 -43 90 -26 28 -80 29 -124 2z"/>
<path d="M4069 3087 c-44 -34 -50 -92 -14 -131 51 -55 137 -19 137 59 0 67
-74 110 -123 72z"/>
<path d="M2575 2885 c-87 -30 -128 -128 -88 -212 23 -49 66 -73 130 -73 175 0
195 254 23 293 -14 3 -43 -1 -65 -8z"/>
<path d="M7765 2876 c-17 -7 -43 -28 -58 -45 -23 -28 -27 -42 -27 -93 0 -57 2
-63 38 -98 51 -51 96 -60 156 -30 134 64 106 254 -40 275 -23 3 -51 0 -69 -9z"/>
<path d="M4147 2349 c-27 -16 -38 -53 -26 -89 20 -55 74 -67 108 -24 54 69 -9
156 -82 113z"/>
<path d="M6212 2337 c-30 -32 -30 -90 0 -111 34 -24 73 -20 97 10 28 36 26 60
-8 95 -35 35 -60 37 -89 6z"/>
</g>
</svg>
